<?xml version="1.0" encoding="utf-8"?>
<!-- Generator: Adobe Illustrator 24.0.2, SVG Export Plug-In . SVG Version: 6.00 Build 0)  -->
<svg version="1.1" id="Layer_1" xmlns="http://www.w3.org/2000/svg" xmlns:xlink="http://www.w3.org/1999/xlink" x="0px" y="0px"
	 viewBox="0 0 407.69 166.15" style="enable-background:new 0 0 407.69 166.15;" xml:space="preserve">
<style type="text/css">
	.st0{fill:#00769A;}
	.st1{fill:#58595B;}
	.st2{fill:none;}
	.st3{fill:#333333;}
	.st4{fill:#FFFFFF;}
	.st5{fill:#BCBEC0;}
</style>
<path class="st0" d="M146.09,47.3h14.35l9.91,28.1h0.12l9.97-28.1h14.29v43.06h-9.49V57.33h-0.12l-11.31,33.03h-7.24L155.7,57.33
	h-0.12v33.03h-9.49V47.3z"/>
<path class="st0" d="M221.25,55.69h-12.29V47.3h34.06v8.39h-12.29v34.67h-9.49V55.69z"/>
<path class="st0" d="M255.94,47.3h12.89l18.31,29.92h0.12V47.3h9.49v43.06h-12.41l-18.79-30.65h-0.12v30.65h-9.49V47.3z"/>
<path class="st0" d="M351.61,90.36h-10.83l-10.64-28.22h-0.12l-10.83,28.22h-10.16l17.76-43.06h7.6L351.61,90.36z"/>
<path class="st0" d="M363.03,47.3h16c2.23,0,4.34,0.2,6.33,0.61c1.99,0.41,3.72,1.1,5.2,2.1c1.48,0.99,2.66,2.33,3.53,4.01
	s1.31,3.8,1.31,6.36c0,2.51-0.41,4.62-1.22,6.32s-1.93,3.06-3.35,4.08c-1.42,1.01-3.1,1.73-5.05,2.16s-4.05,0.64-6.33,0.64h-6.93
	v16.79h-9.49V47.3z M372.52,65.54h6.32c0.85,0,1.67-0.08,2.46-0.24c0.79-0.16,1.5-0.43,2.13-0.82c0.63-0.38,1.13-0.91,1.52-1.58
	c0.39-0.67,0.58-1.51,0.58-2.52c0-1.09-0.25-1.98-0.76-2.65c-0.51-0.67-1.16-1.19-1.95-1.55c-0.79-0.36-1.67-0.6-2.65-0.7
	c-0.97-0.1-1.91-0.15-2.8-0.15h-4.87V65.54z"/>
<g>
	<path class="st1" d="M145.78,109.31h3.82l1.59,7.48h0.03l3.71-7.48h3.81l-1.6,11.47h-2.53l1.23-8.8h-0.03l-4.24,8.8h-1.93
		l-1.67-8.8h-0.03l-1.23,8.8h-2.53L145.78,109.31z"/>
	<path class="st1" d="M160.3,112.9h2.43l-1.1,7.87h-2.43L160.3,112.9z M160.44,110.42c0.03-0.19,0.1-0.38,0.19-0.55
		c0.1-0.17,0.22-0.32,0.36-0.44c0.15-0.12,0.31-0.22,0.49-0.3c0.18-0.08,0.37-0.11,0.57-0.11c0.39,0,0.7,0.14,0.93,0.41
		c0.23,0.27,0.32,0.61,0.27,1c-0.02,0.19-0.08,0.38-0.18,0.55c-0.1,0.17-0.22,0.32-0.36,0.45c-0.15,0.12-0.31,0.22-0.49,0.3
		c-0.18,0.08-0.37,0.11-0.57,0.11s-0.37-0.04-0.53-0.11c-0.16-0.08-0.3-0.18-0.4-0.3c-0.11-0.12-0.19-0.27-0.24-0.45
		C160.43,110.8,160.42,110.62,160.44,110.42z"/>
	<path class="st1" d="M169.45,115.45c-0.1-0.17-0.25-0.32-0.45-0.43s-0.42-0.17-0.67-0.17c-0.62,0-1.12,0.18-1.51,0.55
		c-0.39,0.37-0.63,0.85-0.71,1.44c-0.09,0.59,0.01,1.08,0.3,1.44c0.29,0.37,0.74,0.55,1.35,0.55c0.27,0,0.51-0.06,0.73-0.18
		c0.22-0.12,0.4-0.26,0.57-0.42l1.36,1.68c-0.44,0.39-0.93,0.66-1.46,0.82c-0.53,0.16-1.03,0.23-1.49,0.23
		c-0.6,0-1.16-0.1-1.67-0.29c-0.51-0.19-0.93-0.47-1.27-0.83c-0.34-0.36-0.59-0.8-0.75-1.3c-0.16-0.51-0.19-1.07-0.11-1.7
		s0.28-1.19,0.58-1.7s0.67-0.94,1.11-1.3c0.44-0.36,0.95-0.64,1.51-0.83s1.14-0.29,1.75-0.29c0.46,0,0.94,0.08,1.43,0.24
		c0.49,0.16,0.9,0.43,1.22,0.82L169.45,115.45z"/>
	<path class="st1" d="M172.28,112.9h2.43l-0.18,1.26h0.03c0.32-0.49,0.68-0.85,1.07-1.09c0.39-0.24,0.85-0.36,1.39-0.36
		c0.14,0,0.28,0.01,0.42,0.02c0.14,0.01,0.27,0.03,0.39,0.07l-0.31,2.22c-0.17-0.05-0.34-0.1-0.5-0.12
		c-0.16-0.03-0.33-0.04-0.52-0.04c-0.46,0-0.84,0.07-1.13,0.19c-0.29,0.13-0.52,0.31-0.7,0.54c-0.17,0.23-0.31,0.51-0.4,0.83
		c-0.09,0.32-0.16,0.68-0.22,1.07l-0.45,3.29h-2.43L172.28,112.9z"/>
	<path class="st1" d="M177.74,116.84c0.09-0.63,0.28-1.19,0.57-1.7s0.67-0.94,1.11-1.3c0.44-0.36,0.95-0.64,1.51-0.83
		s1.14-0.29,1.75-0.29s1.16,0.1,1.67,0.29c0.51,0.19,0.93,0.47,1.28,0.83c0.35,0.36,0.6,0.8,0.75,1.3c0.16,0.51,0.19,1.07,0.11,1.7
		c-0.09,0.63-0.28,1.19-0.58,1.7c-0.3,0.51-0.68,0.94-1.12,1.3c-0.44,0.36-0.95,0.64-1.51,0.83c-0.56,0.2-1.14,0.29-1.75,0.29
		c-0.61,0-1.16-0.1-1.67-0.29c-0.51-0.19-0.93-0.47-1.27-0.83c-0.34-0.36-0.59-0.8-0.75-1.3
		C177.69,118.03,177.66,117.47,177.74,116.84z M180.17,116.84c-0.09,0.59,0.01,1.08,0.3,1.44c0.29,0.37,0.74,0.55,1.35,0.55
		s1.12-0.18,1.51-0.55c0.39-0.37,0.63-0.85,0.72-1.44c0.09-0.59-0.02-1.07-0.31-1.44c-0.29-0.37-0.75-0.55-1.36-0.55
		s-1.12,0.18-1.51,0.55C180.5,115.77,180.26,116.25,180.17,116.84z"/>
	<path class="st1" d="M189.31,108.53h2.43l-0.75,5.22h0.03c0.33-0.38,0.73-0.64,1.19-0.8c0.46-0.16,0.94-0.24,1.45-0.24
		c0.56,0,1.05,0.12,1.46,0.35c0.41,0.23,0.75,0.54,1,0.93c0.26,0.39,0.43,0.83,0.53,1.34c0.09,0.5,0.1,1.03,0.02,1.58
		c-0.09,0.59-0.26,1.14-0.51,1.64c-0.25,0.5-0.58,0.93-0.96,1.29c-0.39,0.36-0.83,0.64-1.34,0.84c-0.5,0.2-1.04,0.3-1.63,0.3
		c-0.28,0-0.54-0.04-0.78-0.11c-0.24-0.08-0.45-0.17-0.65-0.29c-0.19-0.12-0.36-0.25-0.5-0.4c-0.14-0.15-0.25-0.29-0.32-0.43h-0.03
		l-0.13,1.04h-2.24L189.31,108.53z M190.38,116.84c-0.09,0.59,0.01,1.08,0.3,1.44c0.29,0.37,0.74,0.55,1.35,0.55
		s1.12-0.18,1.51-0.55c0.39-0.37,0.63-0.85,0.72-1.44c0.09-0.59-0.02-1.07-0.31-1.44c-0.29-0.37-0.75-0.55-1.36-0.55
		c-0.62,0-1.12,0.18-1.51,0.55C190.7,115.77,190.47,116.25,190.38,116.84z"/>
	<path class="st1" d="M198.71,112.9h2.43l-1.1,7.87h-2.43L198.71,112.9z M198.85,110.42c0.03-0.19,0.1-0.38,0.19-0.55
		c0.1-0.17,0.22-0.32,0.36-0.44c0.15-0.12,0.31-0.22,0.49-0.3c0.18-0.08,0.37-0.11,0.57-0.11c0.39,0,0.7,0.14,0.93,0.41
		c0.23,0.27,0.32,0.61,0.27,1c-0.02,0.19-0.08,0.38-0.18,0.55c-0.1,0.17-0.22,0.32-0.36,0.45c-0.15,0.12-0.31,0.22-0.49,0.3
		c-0.18,0.08-0.37,0.11-0.57,0.11s-0.37-0.04-0.53-0.11c-0.16-0.08-0.3-0.18-0.4-0.3c-0.11-0.12-0.19-0.27-0.24-0.45
		C198.84,110.8,198.83,110.62,198.85,110.42z"/>
	<path class="st1" d="M206.86,119.79h-0.03c-0.32,0.42-0.72,0.72-1.2,0.91c-0.48,0.18-0.96,0.28-1.46,0.28
		c-0.37,0-0.71-0.05-1.04-0.15c-0.32-0.1-0.6-0.26-0.83-0.46c-0.23-0.21-0.4-0.46-0.51-0.76c-0.11-0.3-0.14-0.65-0.08-1.05
		c0.1-0.68,0.35-1.21,0.77-1.58c0.42-0.37,0.91-0.65,1.47-0.83c0.57-0.18,1.16-0.28,1.78-0.32c0.62-0.03,1.18-0.05,1.69-0.05
		c0.05-0.43-0.05-0.77-0.32-1.03c-0.27-0.25-0.62-0.38-1.04-0.38c-0.4,0-0.78,0.08-1.13,0.25c-0.35,0.17-0.68,0.4-0.98,0.69
		l-1.1-1.33c0.51-0.42,1.08-0.74,1.71-0.95c0.63-0.21,1.27-0.32,1.92-0.32c0.71,0,1.29,0.09,1.72,0.27c0.44,0.18,0.77,0.44,1,0.79
		c0.23,0.35,0.36,0.77,0.4,1.27s0.01,1.08-0.09,1.74l-0.55,4h-2.23L206.86,119.79z M206.6,117.33c-0.18,0-0.41,0.01-0.69,0.02
		c-0.28,0.02-0.55,0.06-0.81,0.14c-0.27,0.08-0.5,0.19-0.7,0.34c-0.2,0.15-0.32,0.36-0.35,0.63c-0.02,0.15-0.01,0.28,0.05,0.38
		c0.05,0.1,0.13,0.19,0.23,0.27c0.1,0.08,0.21,0.13,0.35,0.16c0.14,0.03,0.27,0.05,0.4,0.05c0.24,0,0.47-0.03,0.7-0.1
		c0.23-0.07,0.44-0.16,0.63-0.28c0.19-0.12,0.35-0.27,0.48-0.45c0.13-0.18,0.21-0.4,0.24-0.65l0.06-0.52H206.6z"/>
	<path class="st1" d="M212.23,108.53h2.43l-1.72,12.25h-2.43L212.23,108.53z"/>
	<path class="st1" d="M223.32,111.54h-3.27l0.31-2.23h9.07l-0.31,2.23h-3.27l-1.3,9.24h-2.53L223.32,111.54z"/>
	<path class="st1" d="M228.4,112.9h2.43l-0.18,1.26h0.03c0.32-0.49,0.68-0.85,1.07-1.09c0.39-0.24,0.85-0.36,1.39-0.36
		c0.14,0,0.28,0.01,0.42,0.02c0.14,0.01,0.27,0.03,0.39,0.07l-0.31,2.22c-0.17-0.05-0.34-0.1-0.5-0.12
		c-0.16-0.03-0.33-0.04-0.52-0.04c-0.47,0-0.84,0.07-1.13,0.19c-0.29,0.13-0.52,0.31-0.7,0.54c-0.17,0.23-0.3,0.51-0.4,0.83
		c-0.09,0.32-0.17,0.68-0.22,1.07l-0.45,3.29h-2.43L228.4,112.9z"/>
	<path class="st1" d="M238.96,119.79h-0.03c-0.32,0.42-0.72,0.72-1.2,0.91c-0.48,0.18-0.96,0.28-1.46,0.28
		c-0.37,0-0.71-0.05-1.04-0.15c-0.32-0.1-0.6-0.26-0.83-0.46c-0.23-0.21-0.4-0.46-0.51-0.76c-0.11-0.3-0.14-0.65-0.08-1.05
		c0.1-0.68,0.35-1.21,0.77-1.58c0.42-0.37,0.91-0.65,1.47-0.83c0.57-0.18,1.16-0.28,1.78-0.32c0.62-0.03,1.19-0.05,1.69-0.05
		c0.05-0.43-0.05-0.77-0.32-1.03c-0.27-0.25-0.62-0.38-1.04-0.38c-0.4,0-0.77,0.08-1.13,0.25c-0.35,0.17-0.68,0.4-0.98,0.69
		l-1.1-1.33c0.51-0.42,1.08-0.74,1.71-0.95c0.63-0.21,1.27-0.32,1.92-0.32c0.71,0,1.29,0.09,1.73,0.27c0.44,0.18,0.77,0.44,1,0.79
		c0.23,0.35,0.36,0.77,0.4,1.27c0.04,0.5,0.01,1.08-0.09,1.74l-0.55,4h-2.24L238.96,119.79z M238.71,117.33
		c-0.18,0-0.41,0.01-0.69,0.02c-0.27,0.02-0.55,0.06-0.81,0.14c-0.26,0.08-0.5,0.19-0.7,0.34c-0.2,0.15-0.32,0.36-0.35,0.63
		c-0.02,0.15-0.01,0.28,0.05,0.38c0.05,0.1,0.13,0.19,0.23,0.27c0.1,0.08,0.21,0.13,0.35,0.16c0.14,0.03,0.27,0.05,0.4,0.05
		c0.24,0,0.47-0.03,0.7-0.1s0.44-0.16,0.63-0.28c0.19-0.12,0.35-0.27,0.48-0.45c0.13-0.18,0.21-0.4,0.24-0.65l0.07-0.52H238.71z"/>
	<path class="st1" d="M243.7,112.9h2.33l-0.15,1.07h0.03c0.1-0.15,0.23-0.3,0.39-0.45c0.16-0.15,0.34-0.29,0.55-0.4
		c0.21-0.12,0.44-0.22,0.7-0.29c0.26-0.08,0.54-0.11,0.83-0.11c0.62,0,1.1,0.1,1.46,0.28c0.36,0.19,0.62,0.45,0.78,0.79
		c0.16,0.33,0.25,0.73,0.26,1.18c0.01,0.45-0.02,0.95-0.1,1.47l-0.6,4.34h-2.43l0.54-3.86c0.03-0.23,0.06-0.46,0.08-0.71
		c0.02-0.24,0.01-0.47-0.05-0.67c-0.05-0.21-0.16-0.37-0.31-0.5c-0.15-0.13-0.38-0.19-0.7-0.19s-0.58,0.06-0.79,0.17
		s-0.38,0.26-0.51,0.45s-0.23,0.4-0.29,0.64c-0.06,0.24-0.11,0.49-0.15,0.75l-0.55,3.92h-2.43L243.7,112.9z"/>
	<path class="st1" d="M257.13,115.22c-0.29-0.44-0.73-0.66-1.33-0.66c-0.21,0-0.41,0.05-0.62,0.15c-0.21,0.1-0.32,0.26-0.36,0.5
		c-0.03,0.19,0.05,0.34,0.24,0.43c0.19,0.09,0.44,0.17,0.73,0.24c0.29,0.07,0.61,0.15,0.95,0.23c0.34,0.08,0.65,0.21,0.93,0.38
		c0.28,0.17,0.5,0.41,0.66,0.7c0.16,0.3,0.2,0.69,0.14,1.19c-0.07,0.51-0.23,0.93-0.5,1.26c-0.27,0.33-0.59,0.59-0.96,0.79
		c-0.37,0.2-0.78,0.34-1.22,0.42c-0.44,0.08-0.87,0.12-1.3,0.12c-0.55,0-1.1-0.08-1.64-0.23c-0.54-0.16-0.98-0.43-1.31-0.83
		l1.7-1.64c0.19,0.28,0.42,0.49,0.67,0.64c0.25,0.15,0.56,0.22,0.93,0.22c0.28,0,0.54-0.04,0.78-0.12c0.24-0.08,0.37-0.23,0.4-0.45
		c0.03-0.2-0.05-0.36-0.24-0.46c-0.19-0.1-0.43-0.19-0.73-0.26s-0.62-0.15-0.96-0.23c-0.34-0.08-0.65-0.2-0.94-0.36
		c-0.29-0.16-0.51-0.39-0.67-0.69c-0.16-0.3-0.21-0.69-0.13-1.19c0.06-0.46,0.22-0.86,0.45-1.2c0.24-0.33,0.53-0.61,0.87-0.83
		c0.34-0.22,0.72-0.37,1.13-0.48c0.41-0.1,0.82-0.15,1.23-0.15c0.52,0,1.03,0.08,1.54,0.23c0.51,0.15,0.92,0.42,1.23,0.81
		L257.13,115.22z"/>
	<path class="st1" d="M260.5,112.9h2.33l-0.15,1.07h0.03c0.1-0.15,0.23-0.3,0.39-0.45c0.16-0.15,0.35-0.29,0.55-0.4
		c0.2-0.12,0.44-0.22,0.7-0.29c0.26-0.08,0.54-0.11,0.83-0.11c0.55,0,1.03,0.11,1.43,0.34s0.67,0.58,0.81,1.07
		c0.36-0.51,0.75-0.87,1.17-1.09c0.43-0.22,0.93-0.32,1.52-0.32c0.53,0,0.96,0.09,1.3,0.27c0.33,0.18,0.59,0.42,0.76,0.73
		c0.17,0.31,0.27,0.67,0.31,1.09s0.02,0.86-0.05,1.34l-0.65,4.65h-2.43l0.63-4.58c0.05-0.37,0.02-0.68-0.1-0.95s-0.38-0.4-0.78-0.4
		c-0.28,0-0.52,0.05-0.72,0.14c-0.2,0.09-0.37,0.22-0.51,0.38s-0.25,0.35-0.32,0.57c-0.08,0.22-0.13,0.44-0.16,0.68l-0.58,4.16
		h-2.43l0.58-4.16c0.02-0.14,0.04-0.31,0.06-0.52c0.02-0.21,0.01-0.4-0.03-0.58c-0.04-0.18-0.12-0.34-0.25-0.47
		c-0.13-0.13-0.33-0.19-0.62-0.19c-0.31,0-0.58,0.06-0.79,0.17s-0.38,0.26-0.51,0.45c-0.13,0.19-0.23,0.4-0.29,0.64
		c-0.07,0.24-0.11,0.49-0.15,0.75l-0.55,3.92h-2.43L260.5,112.9z"/>
	<path class="st1" d="M274.62,112.9h2.43l-1.1,7.87h-2.43L274.62,112.9z M274.77,110.42c0.03-0.19,0.1-0.38,0.2-0.55
		c0.1-0.17,0.22-0.32,0.36-0.44c0.15-0.12,0.31-0.22,0.5-0.3c0.18-0.08,0.37-0.11,0.57-0.11c0.39,0,0.7,0.14,0.93,0.41
		c0.23,0.27,0.32,0.61,0.27,1c-0.02,0.19-0.08,0.38-0.18,0.55c-0.1,0.17-0.22,0.32-0.36,0.45c-0.15,0.12-0.31,0.22-0.49,0.3
		c-0.18,0.08-0.37,0.11-0.57,0.11s-0.37-0.04-0.54-0.11c-0.16-0.08-0.3-0.18-0.4-0.3c-0.11-0.12-0.19-0.27-0.23-0.45
		C274.76,110.8,274.75,110.62,274.77,110.42z"/>
	<path class="st1" d="M282.93,115.22c-0.29-0.44-0.73-0.66-1.33-0.66c-0.21,0-0.41,0.05-0.62,0.15c-0.21,0.1-0.32,0.26-0.36,0.5
		c-0.03,0.19,0.05,0.34,0.24,0.43s0.44,0.17,0.73,0.24c0.29,0.07,0.61,0.15,0.95,0.23s0.65,0.21,0.93,0.38
		c0.28,0.17,0.5,0.41,0.66,0.7c0.16,0.3,0.2,0.69,0.14,1.19c-0.07,0.51-0.23,0.93-0.5,1.26c-0.27,0.33-0.59,0.59-0.96,0.79
		c-0.37,0.2-0.78,0.34-1.22,0.42c-0.44,0.08-0.87,0.12-1.3,0.12c-0.55,0-1.1-0.08-1.64-0.23c-0.54-0.16-0.98-0.43-1.31-0.83
		l1.7-1.64c0.19,0.28,0.42,0.49,0.67,0.64c0.25,0.15,0.56,0.22,0.93,0.22c0.28,0,0.54-0.04,0.78-0.12c0.24-0.08,0.37-0.23,0.4-0.45
		c0.03-0.2-0.05-0.36-0.24-0.46c-0.19-0.1-0.43-0.19-0.73-0.26s-0.62-0.15-0.96-0.23c-0.34-0.08-0.65-0.2-0.94-0.36
		c-0.29-0.16-0.51-0.39-0.67-0.69c-0.16-0.3-0.21-0.69-0.13-1.19c0.06-0.46,0.22-0.86,0.45-1.2c0.24-0.33,0.53-0.61,0.87-0.83
		c0.34-0.22,0.72-0.37,1.13-0.48c0.41-0.1,0.82-0.15,1.23-0.15c0.52,0,1.03,0.08,1.54,0.23c0.51,0.15,0.92,0.42,1.23,0.81
		L282.93,115.22z"/>
	<path class="st1" d="M290.43,115.22c-0.29-0.44-0.73-0.66-1.33-0.66c-0.2,0-0.41,0.05-0.62,0.15s-0.32,0.26-0.36,0.5
		c-0.03,0.19,0.05,0.34,0.24,0.43c0.19,0.09,0.44,0.17,0.73,0.24c0.29,0.07,0.61,0.15,0.95,0.23c0.34,0.08,0.65,0.21,0.93,0.38
		c0.28,0.17,0.5,0.41,0.66,0.7s0.2,0.69,0.14,1.19c-0.07,0.51-0.23,0.93-0.5,1.26c-0.27,0.33-0.59,0.59-0.96,0.79
		c-0.37,0.2-0.78,0.34-1.22,0.42c-0.44,0.08-0.87,0.12-1.3,0.12c-0.55,0-1.1-0.08-1.64-0.23c-0.54-0.16-0.98-0.43-1.31-0.83
		l1.7-1.64c0.19,0.28,0.42,0.49,0.67,0.64c0.25,0.15,0.56,0.22,0.93,0.22c0.28,0,0.54-0.04,0.78-0.12c0.24-0.08,0.37-0.23,0.4-0.45
		c0.03-0.2-0.05-0.36-0.23-0.46c-0.19-0.1-0.43-0.19-0.73-0.26s-0.62-0.15-0.96-0.23c-0.34-0.08-0.65-0.2-0.94-0.36
		c-0.29-0.16-0.51-0.39-0.67-0.69c-0.16-0.3-0.21-0.69-0.13-1.19c0.07-0.46,0.22-0.86,0.45-1.2c0.24-0.33,0.53-0.61,0.87-0.83
		c0.34-0.22,0.71-0.37,1.13-0.48c0.41-0.1,0.82-0.15,1.23-0.15c0.52,0,1.03,0.08,1.54,0.23c0.51,0.15,0.92,0.42,1.23,0.81
		L290.43,115.22z"/>
	<path class="st1" d="M293.84,112.9h2.43l-1.1,7.87h-2.43L293.84,112.9z M293.98,110.42c0.03-0.19,0.1-0.38,0.19-0.55
		c0.1-0.17,0.22-0.32,0.36-0.44c0.15-0.12,0.31-0.22,0.49-0.3c0.18-0.08,0.37-0.11,0.57-0.11c0.39,0,0.7,0.14,0.93,0.41
		c0.23,0.27,0.32,0.61,0.27,1c-0.02,0.19-0.08,0.38-0.18,0.55c-0.1,0.17-0.22,0.32-0.36,0.45c-0.15,0.12-0.31,0.22-0.49,0.3
		c-0.18,0.08-0.37,0.11-0.57,0.11s-0.37-0.04-0.53-0.11c-0.16-0.08-0.3-0.18-0.4-0.3c-0.11-0.12-0.19-0.27-0.24-0.45
		C293.97,110.8,293.96,110.62,293.98,110.42z"/>
	<path class="st1" d="M297.17,116.84c0.09-0.63,0.28-1.19,0.58-1.7s0.67-0.94,1.11-1.3c0.44-0.36,0.95-0.64,1.51-0.83
		c0.56-0.19,1.15-0.29,1.75-0.29c0.61,0,1.16,0.1,1.67,0.29s0.93,0.47,1.28,0.83c0.34,0.36,0.6,0.8,0.75,1.3s0.19,1.07,0.11,1.7
		s-0.28,1.19-0.58,1.7c-0.3,0.51-0.68,0.94-1.12,1.3c-0.44,0.36-0.95,0.64-1.51,0.83c-0.56,0.2-1.15,0.29-1.75,0.29
		c-0.61,0-1.16-0.1-1.67-0.29c-0.51-0.19-0.93-0.47-1.27-0.83c-0.34-0.36-0.59-0.8-0.75-1.3
		C297.12,118.03,297.09,117.47,297.17,116.84z M299.6,116.84c-0.09,0.59,0.01,1.08,0.3,1.44c0.29,0.37,0.74,0.55,1.35,0.55
		s1.12-0.18,1.52-0.55c0.39-0.37,0.63-0.85,0.72-1.44c0.09-0.59-0.02-1.07-0.31-1.44c-0.29-0.37-0.74-0.55-1.36-0.55
		s-1.12,0.18-1.51,0.55C299.93,115.77,299.69,116.25,299.6,116.84z"/>
	<path class="st1" d="M307.9,112.9h2.33l-0.15,1.07h0.03c0.1-0.15,0.23-0.3,0.39-0.45c0.16-0.15,0.34-0.29,0.55-0.4
		c0.21-0.12,0.44-0.22,0.7-0.29c0.26-0.08,0.54-0.11,0.83-0.11c0.62,0,1.1,0.1,1.46,0.28c0.36,0.19,0.62,0.45,0.78,0.79
		c0.16,0.33,0.25,0.73,0.26,1.18c0.01,0.45-0.02,0.95-0.1,1.47l-0.6,4.34h-2.43l0.54-3.86c0.03-0.23,0.06-0.46,0.08-0.71
		c0.02-0.24,0.01-0.47-0.05-0.67c-0.05-0.21-0.16-0.37-0.31-0.5c-0.15-0.13-0.38-0.19-0.7-0.19c-0.31,0-0.58,0.06-0.79,0.17
		s-0.38,0.26-0.51,0.45c-0.13,0.19-0.23,0.4-0.29,0.64c-0.06,0.24-0.11,0.49-0.15,0.75l-0.55,3.92h-2.43L307.9,112.9z"/>
	<path class="st1" d="M322.8,109.31h3.43l3.76,7.97h0.03l1.12-7.97h2.53l-1.6,11.47h-3.3l-3.87-8.16h-0.03l-1.13,8.16h-2.53
		L322.8,109.31z"/>
	<path class="st1" d="M341.73,119.42c-0.45,0.5-1,0.88-1.63,1.15c-0.63,0.27-1.27,0.4-1.9,0.4c-0.6,0-1.16-0.1-1.67-0.29
		c-0.51-0.19-0.93-0.47-1.27-0.83c-0.34-0.36-0.59-0.8-0.74-1.3c-0.16-0.51-0.19-1.07-0.11-1.7s0.28-1.19,0.57-1.7
		c0.3-0.51,0.67-0.94,1.11-1.3c0.44-0.36,0.95-0.64,1.51-0.83s1.14-0.29,1.75-0.29c0.56,0,1.06,0.1,1.49,0.29
		c0.43,0.19,0.78,0.47,1.05,0.83c0.27,0.36,0.46,0.8,0.56,1.3s0.11,1.07,0.03,1.7l-0.11,0.76h-5.64c0.03,0.46,0.19,0.83,0.48,1.11
		s0.67,0.41,1.14,0.41c0.4,0,0.75-0.09,1.04-0.27c0.3-0.18,0.57-0.41,0.82-0.69L341.73,119.42z M340.15,115.95
		c0.07-0.41-0.02-0.76-0.26-1.05c-0.24-0.29-0.58-0.44-1.02-0.44c-0.27,0-0.51,0.04-0.73,0.13c-0.22,0.09-0.4,0.2-0.57,0.33
		c-0.16,0.14-0.3,0.29-0.4,0.47c-0.11,0.18-0.18,0.36-0.23,0.56H340.15z"/>
	<path class="st1" d="M349.58,114.85h-2.14l-0.37,2.62c-0.03,0.22-0.05,0.41-0.05,0.59c0,0.18,0.03,0.33,0.09,0.46
		c0.06,0.13,0.16,0.23,0.31,0.3c0.15,0.07,0.35,0.11,0.61,0.11c0.13,0,0.3-0.01,0.51-0.04c0.21-0.03,0.37-0.09,0.49-0.19l-0.28,2.02
		c-0.28,0.1-0.57,0.16-0.87,0.19c-0.3,0.03-0.59,0.05-0.87,0.05c-0.41,0-0.78-0.04-1.12-0.13c-0.33-0.09-0.62-0.22-0.85-0.41
		c-0.23-0.19-0.4-0.43-0.5-0.74s-0.13-0.67-0.07-1.1l0.54-3.74h-1.56l0.27-1.94h1.56l0.32-2.33h2.43l-0.32,2.33h2.14L349.58,114.85z
		"/>
	<path class="st1" d="M350.15,112.9h2.59l0.91,4.94h0.03l2.04-4.94h2.66l0.76,4.94h0.03l2.17-4.94h2.46l-3.9,7.87h-2.4l-0.91-5.23
		h-0.03l-2.19,5.23h-2.45L350.15,112.9z"/>
	<path class="st1" d="M363.74,116.84c0.09-0.63,0.28-1.19,0.58-1.7s0.67-0.94,1.11-1.3c0.44-0.36,0.95-0.64,1.51-0.83
		s1.14-0.29,1.75-0.29c0.61,0,1.16,0.1,1.67,0.29s0.94,0.47,1.28,0.83c0.34,0.36,0.6,0.8,0.75,1.3c0.16,0.51,0.19,1.07,0.11,1.7
		c-0.09,0.63-0.28,1.19-0.58,1.7c-0.3,0.51-0.67,0.94-1.12,1.3c-0.44,0.36-0.95,0.64-1.51,0.83c-0.56,0.2-1.14,0.29-1.75,0.29
		c-0.6,0-1.16-0.1-1.67-0.29c-0.51-0.19-0.93-0.47-1.27-0.83c-0.34-0.36-0.59-0.8-0.74-1.3
		C363.69,118.03,363.66,117.47,363.74,116.84z M366.17,116.84c-0.09,0.59,0.01,1.08,0.3,1.44c0.29,0.37,0.74,0.55,1.35,0.55
		s1.12-0.18,1.52-0.55c0.39-0.37,0.63-0.85,0.72-1.44c0.09-0.59-0.02-1.07-0.31-1.44c-0.29-0.37-0.74-0.55-1.36-0.55
		c-0.62,0-1.12,0.18-1.51,0.55C366.5,115.77,366.26,116.25,366.17,116.84z"/>
	<path class="st1" d="M374.47,112.9h2.43l-0.18,1.26h0.03c0.32-0.49,0.68-0.85,1.07-1.09c0.39-0.24,0.85-0.36,1.39-0.36
		c0.14,0,0.28,0.01,0.42,0.02c0.14,0.01,0.27,0.03,0.39,0.07l-0.31,2.22c-0.17-0.05-0.34-0.1-0.5-0.12
		c-0.16-0.03-0.33-0.04-0.52-0.04c-0.46,0-0.84,0.07-1.13,0.19c-0.29,0.13-0.52,0.31-0.7,0.54c-0.17,0.23-0.31,0.51-0.4,0.83
		c-0.09,0.32-0.16,0.68-0.22,1.07l-0.45,3.29h-2.43L374.47,112.9z"/>
	<path class="st1" d="M381.68,108.53h2.43l-1.05,7.49l3.13-3.11h2.98l-3.63,3.55l2.61,4.33h-3.06l-2.11-3.99h-0.03l-0.55,3.99h-2.43
		L381.68,108.53z"/>
	<path class="st1" d="M208.05,128.75h2.09l3.39,11.47h-2.85l-0.65-2.43h-4.46l-1.3,2.43h-2.79L208.05,128.75z M208.55,132.08
		l-1.9,3.56h2.8L208.55,132.08z"/>
	<path class="st1" d="M215.47,132.34h2.33l-0.15,1.07h0.03c0.1-0.15,0.23-0.3,0.39-0.45c0.16-0.15,0.35-0.29,0.55-0.4
		c0.2-0.12,0.44-0.22,0.7-0.29c0.26-0.08,0.54-0.11,0.83-0.11c0.62,0,1.1,0.1,1.46,0.28c0.36,0.19,0.62,0.45,0.78,0.79
		c0.16,0.33,0.25,0.73,0.26,1.18c0.01,0.45-0.02,0.95-0.1,1.47l-0.6,4.34h-2.43l0.53-3.86c0.03-0.23,0.06-0.46,0.08-0.71
		c0.02-0.24,0.01-0.47-0.05-0.67c-0.05-0.21-0.16-0.37-0.31-0.5c-0.15-0.13-0.38-0.19-0.7-0.19c-0.31,0-0.58,0.06-0.79,0.17
		s-0.38,0.26-0.51,0.45c-0.13,0.19-0.23,0.4-0.29,0.64c-0.07,0.24-0.11,0.49-0.15,0.75l-0.55,3.92h-2.43L215.47,132.34z"/>
	<path class="st1" d="M228.73,139.23h-0.03c-0.32,0.42-0.72,0.72-1.2,0.91c-0.48,0.18-0.96,0.28-1.46,0.28
		c-0.37,0-0.71-0.05-1.04-0.15c-0.32-0.1-0.6-0.26-0.83-0.46c-0.23-0.21-0.4-0.46-0.51-0.76c-0.11-0.3-0.14-0.65-0.08-1.05
		c0.1-0.68,0.35-1.21,0.77-1.58c0.42-0.37,0.91-0.65,1.47-0.83c0.57-0.18,1.16-0.28,1.78-0.32c0.62-0.03,1.19-0.05,1.69-0.05
		c0.05-0.43-0.05-0.77-0.32-1.03c-0.27-0.25-0.62-0.38-1.04-0.38c-0.4,0-0.77,0.08-1.13,0.25s-0.68,0.4-0.98,0.69l-1.1-1.33
		c0.51-0.42,1.08-0.74,1.71-0.95c0.63-0.21,1.27-0.32,1.92-0.32c0.71,0,1.29,0.09,1.73,0.27c0.44,0.18,0.77,0.44,1,0.79
		c0.23,0.35,0.36,0.77,0.4,1.27c0.04,0.5,0.01,1.08-0.09,1.74l-0.55,4h-2.24L228.73,139.23z M228.48,136.77
		c-0.18,0-0.41,0.01-0.69,0.02c-0.27,0.02-0.55,0.06-0.81,0.14c-0.26,0.08-0.5,0.19-0.7,0.34c-0.2,0.15-0.32,0.36-0.35,0.63
		c-0.02,0.15-0.01,0.28,0.05,0.38c0.05,0.1,0.13,0.19,0.23,0.27c0.1,0.08,0.21,0.13,0.35,0.16c0.14,0.03,0.27,0.05,0.4,0.05
		c0.24,0,0.47-0.03,0.7-0.1c0.23-0.07,0.44-0.16,0.63-0.28c0.19-0.12,0.35-0.27,0.48-0.45c0.13-0.18,0.21-0.4,0.24-0.65l0.07-0.52
		H228.48z"/>
	<path class="st1" d="M234.11,127.97h2.43l-1.72,12.25h-2.43L234.11,127.97z"/>
	<path class="st1" d="M240.92,141.5c-0.22,0.42-0.42,0.79-0.62,1.12c-0.19,0.32-0.42,0.6-0.69,0.82c-0.26,0.22-0.58,0.39-0.96,0.5
		c-0.37,0.11-0.85,0.17-1.43,0.17c-0.63,0-1.22-0.1-1.77-0.29l0.6-1.99c0.33,0.16,0.7,0.24,1.09,0.24c0.27,0,0.5-0.03,0.68-0.09
		c0.18-0.06,0.34-0.15,0.47-0.26c0.13-0.11,0.24-0.25,0.34-0.41c0.1-0.16,0.21-0.35,0.32-0.57l0.24-0.45l-2.33-7.94h2.62l1.3,5.2
		h0.03l2.46-5.2h2.49L240.92,141.5z"/>
	<path class="st1" d="M251.77,134.29h-2.14l-0.37,2.62c-0.03,0.22-0.05,0.41-0.05,0.59s0.03,0.33,0.09,0.46
		c0.06,0.13,0.16,0.23,0.31,0.3c0.15,0.07,0.35,0.11,0.61,0.11c0.13,0,0.3-0.01,0.51-0.04c0.21-0.03,0.37-0.09,0.49-0.19l-0.27,2.02
		c-0.28,0.1-0.57,0.16-0.87,0.19s-0.59,0.05-0.87,0.05c-0.41,0-0.78-0.04-1.12-0.13s-0.62-0.22-0.85-0.41
		c-0.23-0.19-0.4-0.43-0.5-0.74c-0.1-0.3-0.13-0.67-0.07-1.1l0.54-3.74h-1.56l0.28-1.94h1.56l0.32-2.33h2.43l-0.32,2.33h2.14
		L251.77,134.29z"/>
	<path class="st1" d="M253.31,132.34h2.43l-1.1,7.87h-2.43L253.31,132.34z M253.46,129.87c0.03-0.19,0.1-0.38,0.2-0.55
		c0.1-0.17,0.22-0.32,0.36-0.44c0.15-0.12,0.31-0.22,0.5-0.3c0.18-0.08,0.37-0.11,0.57-0.11c0.39,0,0.7,0.14,0.93,0.41
		c0.23,0.27,0.32,0.61,0.27,1c-0.02,0.19-0.08,0.38-0.18,0.55c-0.1,0.17-0.22,0.32-0.36,0.45c-0.15,0.12-0.31,0.22-0.49,0.3
		c-0.18,0.08-0.37,0.11-0.57,0.11c-0.19,0-0.37-0.04-0.54-0.11c-0.16-0.08-0.3-0.18-0.4-0.3s-0.19-0.27-0.23-0.45
		C253.45,130.24,253.44,130.06,253.46,129.87z"/>
	<path class="st1" d="M262.46,134.89c-0.1-0.17-0.25-0.32-0.45-0.43c-0.2-0.11-0.42-0.17-0.67-0.17c-0.62,0-1.12,0.18-1.51,0.55
		s-0.63,0.85-0.71,1.44s0.01,1.08,0.3,1.44c0.29,0.37,0.74,0.55,1.35,0.55c0.27,0,0.51-0.06,0.73-0.18c0.22-0.12,0.4-0.26,0.57-0.42
		l1.36,1.68c-0.44,0.39-0.93,0.66-1.46,0.82c-0.53,0.16-1.03,0.23-1.49,0.23c-0.61,0-1.16-0.1-1.67-0.29
		c-0.51-0.19-0.93-0.47-1.27-0.83c-0.34-0.36-0.59-0.8-0.75-1.3s-0.19-1.07-0.11-1.7c0.09-0.63,0.28-1.19,0.58-1.7
		c0.3-0.51,0.67-0.94,1.11-1.3c0.44-0.36,0.95-0.64,1.51-0.83s1.14-0.29,1.75-0.29c0.46,0,0.94,0.08,1.43,0.24
		c0.49,0.16,0.9,0.43,1.22,0.82L262.46,134.89z"/>
	<path class="st1" d="M270.91,128.75h4.26c0.59,0,1.15,0.05,1.66,0.16c0.51,0.11,0.95,0.29,1.3,0.56c0.36,0.26,0.62,0.62,0.79,1.07
		c0.17,0.45,0.21,1.01,0.11,1.69c-0.1,0.67-0.29,1.23-0.57,1.68c-0.28,0.45-0.63,0.82-1.05,1.09c-0.42,0.27-0.89,0.46-1.43,0.58
		c-0.54,0.11-1.11,0.17-1.71,0.17h-1.85l-0.62,4.47h-2.53L270.91,128.75z M272.75,133.61h1.68c0.23,0,0.45-0.02,0.66-0.06
		c0.22-0.04,0.42-0.12,0.6-0.22c0.18-0.1,0.34-0.24,0.47-0.42c0.13-0.18,0.21-0.4,0.24-0.67c0.04-0.29,0.01-0.53-0.11-0.71
		c-0.11-0.18-0.27-0.32-0.47-0.41c-0.2-0.1-0.43-0.16-0.68-0.19c-0.25-0.03-0.5-0.04-0.74-0.04h-1.3L272.75,133.61z"/>
	<path class="st1" d="M280.95,127.97h2.43l-1.72,12.25h-2.43L280.95,127.97z"/>
	<path class="st1" d="M288.48,139.23h-0.03c-0.32,0.42-0.72,0.72-1.2,0.91c-0.48,0.18-0.96,0.28-1.46,0.28
		c-0.37,0-0.71-0.05-1.04-0.15c-0.32-0.1-0.6-0.26-0.83-0.46c-0.23-0.21-0.4-0.46-0.51-0.76c-0.11-0.3-0.14-0.65-0.08-1.05
		c0.1-0.68,0.35-1.21,0.77-1.58c0.42-0.37,0.91-0.65,1.47-0.83c0.57-0.18,1.16-0.28,1.78-0.32c0.62-0.03,1.19-0.05,1.69-0.05
		c0.05-0.43-0.05-0.77-0.32-1.03c-0.27-0.25-0.62-0.38-1.04-0.38c-0.4,0-0.77,0.08-1.13,0.25s-0.68,0.4-0.98,0.69l-1.1-1.33
		c0.51-0.42,1.08-0.74,1.71-0.95c0.63-0.21,1.27-0.32,1.92-0.32c0.71,0,1.29,0.09,1.73,0.27c0.44,0.18,0.77,0.44,1,0.79
		c0.23,0.35,0.36,0.77,0.4,1.27c0.04,0.5,0.01,1.08-0.09,1.74l-0.55,4h-2.24L288.48,139.23z M288.22,136.77
		c-0.18,0-0.41,0.01-0.69,0.02c-0.27,0.02-0.55,0.06-0.81,0.14c-0.26,0.08-0.5,0.19-0.7,0.34c-0.2,0.15-0.32,0.36-0.35,0.63
		c-0.02,0.15-0.01,0.28,0.05,0.38c0.05,0.1,0.13,0.19,0.23,0.27c0.1,0.08,0.21,0.13,0.35,0.16c0.14,0.03,0.27,0.05,0.4,0.05
		c0.24,0,0.47-0.03,0.7-0.1s0.44-0.16,0.63-0.28c0.19-0.12,0.35-0.27,0.48-0.45c0.13-0.18,0.21-0.4,0.24-0.65l0.07-0.52H288.22z"/>
	<path class="st1" d="M298.3,134.29h-2.14l-0.37,2.62c-0.03,0.22-0.05,0.41-0.05,0.59s0.03,0.33,0.09,0.46
		c0.06,0.13,0.16,0.23,0.31,0.3c0.15,0.07,0.35,0.11,0.61,0.11c0.13,0,0.3-0.01,0.51-0.04c0.21-0.03,0.37-0.09,0.49-0.19l-0.28,2.02
		c-0.28,0.1-0.57,0.16-0.87,0.19s-0.59,0.05-0.87,0.05c-0.41,0-0.78-0.04-1.12-0.13s-0.62-0.22-0.85-0.41
		c-0.23-0.19-0.4-0.43-0.5-0.74c-0.1-0.3-0.13-0.67-0.07-1.1l0.53-3.74h-1.55l0.27-1.94h1.56l0.32-2.33h2.43l-0.32,2.33h2.14
		L298.3,134.29z"/>
	<path class="st1" d="M300.37,134.29h-1.6l0.28-1.94h1.6l0.19-1.39c0.07-0.43,0.16-0.84,0.28-1.22c0.12-0.38,0.32-0.72,0.58-1.01
		c0.26-0.29,0.6-0.52,1.03-0.69c0.43-0.17,0.97-0.25,1.63-0.25c0.25,0,0.49,0.01,0.73,0.03c0.24,0.02,0.46,0.06,0.68,0.11l-0.4,2.06
		c-0.13-0.05-0.25-0.09-0.36-0.12c-0.11-0.03-0.25-0.04-0.4-0.04c-0.39,0-0.69,0.08-0.91,0.25c-0.22,0.17-0.36,0.51-0.44,1.03
		l-0.18,1.25h1.8l-0.28,1.94h-1.8l-0.83,5.93h-2.43L300.37,134.29z"/>
	<path class="st1" d="M304.96,136.28c0.09-0.63,0.28-1.19,0.57-1.7s0.67-0.94,1.11-1.3c0.44-0.36,0.95-0.64,1.51-0.83
		s1.14-0.29,1.75-0.29c0.6,0,1.16,0.1,1.67,0.29s0.93,0.47,1.28,0.83c0.35,0.36,0.6,0.8,0.75,1.3s0.19,1.07,0.11,1.7
		c-0.09,0.63-0.28,1.19-0.58,1.7c-0.3,0.51-0.68,0.94-1.12,1.3c-0.44,0.36-0.95,0.64-1.51,0.83c-0.56,0.2-1.14,0.29-1.75,0.29
		c-0.61,0-1.16-0.1-1.67-0.29c-0.51-0.19-0.93-0.47-1.27-0.83c-0.34-0.36-0.59-0.8-0.74-1.3
		C304.91,137.47,304.87,136.91,304.96,136.28z M307.39,136.28c-0.09,0.59,0.01,1.08,0.3,1.44c0.29,0.37,0.74,0.55,1.35,0.55
		c0.62,0,1.12-0.18,1.51-0.55c0.39-0.37,0.63-0.85,0.72-1.44c0.09-0.59-0.02-1.07-0.31-1.44c-0.29-0.37-0.75-0.55-1.36-0.55
		s-1.12,0.18-1.51,0.55S307.47,135.69,307.39,136.28z"/>
	<path class="st1" d="M315.68,132.34h2.43l-0.18,1.26h0.03c0.32-0.49,0.68-0.85,1.07-1.09c0.39-0.24,0.85-0.36,1.39-0.36
		c0.14,0,0.28,0.01,0.42,0.02c0.14,0.01,0.27,0.03,0.39,0.07l-0.31,2.22c-0.17-0.05-0.34-0.1-0.5-0.12
		c-0.16-0.03-0.33-0.04-0.52-0.04c-0.46,0-0.84,0.07-1.13,0.19c-0.29,0.13-0.52,0.31-0.7,0.54c-0.17,0.23-0.31,0.51-0.4,0.83
		c-0.09,0.32-0.16,0.68-0.22,1.07l-0.45,3.29h-2.43L315.68,132.34z"/>
	<path class="st1" d="M322.28,132.34h2.33l-0.15,1.07h0.03c0.1-0.15,0.23-0.3,0.39-0.45c0.16-0.15,0.34-0.29,0.55-0.4
		c0.21-0.12,0.44-0.22,0.7-0.29c0.26-0.08,0.54-0.11,0.83-0.11c0.55,0,1.03,0.11,1.43,0.34c0.4,0.23,0.67,0.58,0.81,1.07
		c0.36-0.51,0.75-0.87,1.17-1.09c0.43-0.22,0.93-0.32,1.52-0.32c0.53,0,0.96,0.09,1.3,0.27c0.33,0.18,0.59,0.42,0.76,0.73
		c0.17,0.31,0.28,0.67,0.31,1.09c0.03,0.42,0.02,0.86-0.05,1.34l-0.65,4.65h-2.43l0.63-4.58c0.05-0.37,0.02-0.68-0.1-0.95
		s-0.38-0.4-0.78-0.4c-0.28,0-0.52,0.05-0.72,0.14c-0.2,0.09-0.37,0.22-0.51,0.38c-0.14,0.16-0.25,0.35-0.32,0.57
		c-0.08,0.22-0.13,0.44-0.16,0.68l-0.58,4.16h-2.43l0.58-4.16c0.02-0.14,0.04-0.31,0.06-0.52c0.02-0.21,0.01-0.4-0.03-0.58
		c-0.04-0.18-0.12-0.34-0.25-0.47c-0.13-0.13-0.33-0.19-0.62-0.19c-0.31,0-0.58,0.06-0.79,0.17s-0.38,0.26-0.51,0.45
		s-0.23,0.4-0.29,0.64c-0.06,0.24-0.11,0.49-0.15,0.75l-0.55,3.92h-2.43L322.28,132.34z"/>
</g>
<g>
	<path class="st2" d="M33.19,114.27c-0.09-0.12-0.14-0.27-0.12-0.44C33.05,113.99,33.1,114.15,33.19,114.27z"/>
	<path class="st2" d="M109.77,33.8l0.87-0.87c0.26-0.26,0.39-0.6,0.39-0.94c0,0.34-0.13,0.68-0.39,0.94L109.77,33.8z"/>
	<path class="st2" d="M31.07,113.85c0.08,0,0.15-0.04,0.22-0.07c-0.08,0.03-0.15,0.07-0.24,0.07
		C31.06,113.85,31.06,113.85,31.07,113.85z"/>
	<path class="st2" d="M25.18,108.8c0.08,0,0.16-0.02,0.23-0.05c-0.08,0.03-0.17,0.05-0.25,0.05C25.17,108.8,25.17,108.8,25.18,108.8
		z"/>
	<path class="st2" d="M29.46,99.26c-0.14,0-0.27,0.02-0.4,0.04c0.16-0.02,0.33-0.04,0.5-0.03C29.52,99.26,29.49,99.26,29.46,99.26z"
		/>
	<path class="st2" d="M24.36,102.7c-0.04,0-0.07,0.01-0.11,0.02c0.05-0.01,0.1-0.02,0.16-0.02C24.39,102.71,24.38,102.7,24.36,102.7
		z"/>
	<path class="st2" d="M25.11,100.21c-0.02,0-0.03,0.01-0.05,0.01c0.03,0,0.05,0,0.08,0C25.13,100.22,25.12,100.21,25.11,100.21z"/>
	<path class="st2" d="M26.61,111.04c0,0,0.01,0,0.01,0c-0.01,0-0.02,0-0.03,0C26.6,111.04,26.61,111.04,26.61,111.04z"/>
	<path class="st2" d="M111.02,40.31c0-0.34-0.13-0.69-0.39-0.95l-1-1l1,1C110.89,39.62,111.02,39.97,111.02,40.31z"/>
	<path class="st2" d="M110.15,34.81c-0.09-0.36-0.22-0.69-0.38-1.01C109.93,34.12,110.06,34.45,110.15,34.81L110.15,34.81z"/>
	<path class="st2" d="M110.19,41.55c0.16-0.07,0.31-0.16,0.44-0.29c0.26-0.26,0.39-0.6,0.39-0.95c0,0.34-0.13,0.69-0.39,0.95
		C110.5,41.39,110.35,41.48,110.19,41.55z"/>
	<path class="st2" d="M36.67,114.28c0.06,0,0.12-0.01,0.19-0.03c-0.07,0.02-0.14,0.03-0.2,0.03
		C36.66,114.28,36.67,114.28,36.67,114.28z"/>
	<path class="st2" d="M32.76,101l0.9-0.64c0.13-0.09,0.21-0.23,0.24-0.38c-0.02,0.15-0.11,0.29-0.24,0.38L32.76,101z"/>
	<path class="st2" d="M30.53,97.82c-0.02,0-0.03-0.01-0.05-0.01c-0.01,0-0.02,0.01-0.03,0.01C30.48,97.82,30.5,97.82,30.53,97.82
		L30.53,97.82z"/>
	<path class="st2" d="M24.58,106.49c0.01,0,0.01,0,0.02,0c0.04,0,0.08,0,0.12-0.01l1.06-0.23l-1.06,0.23
		C24.67,106.49,24.63,106.5,24.58,106.49z"/>
	<path class="st2" d="M33.58,103.92l0.99-0.44c0.07-0.03,0.14-0.08,0.19-0.13c-0.05,0.06-0.12,0.1-0.19,0.13L33.58,103.92z"/>
	<polygon class="st2" points="26.26,100.82 25.41,100.29 25.41,100.29 25.41,100.29 	"/>
	<path class="st2" d="M27.59,98.43c-0.02-0.01-0.04-0.02-0.06-0.03l0,0C27.55,98.41,27.57,98.42,27.59,98.43z"/>
	<path class="st2" d="M35.44,105.05c-0.15-0.02-0.3-0.06-0.46-0.06c-0.17,0-0.33-0.04-0.47-0.09c0.15,0.05,0.31,0.09,0.47,0.09
		C35.14,105,35.29,105.03,35.44,105.05z"/>
	<path class="st2" d="M34.33,102.35C34.33,102.35,34.33,102.35,34.33,102.35c0,0,0.01,0,0.01,0
		C34.34,102.36,34.34,102.35,34.33,102.35z"/>
	<path class="st2" d="M13.43,73.88c0.15,0.15,0.34,0.22,0.53,0.22c0.19,0,0.39-0.07,0.53-0.22c-0.15,0.15-0.34,0.22-0.53,0.22
		C13.77,74.1,13.58,74.02,13.43,73.88z"/>
	<path class="st2" d="M36.54,103.8c-0.02,0-0.03,0.01-0.05,0.01c0.03,0,0.05,0,0.08,0C36.56,103.81,36.55,103.8,36.54,103.8z"/>
	<path class="st2" d="M39.9,108.25c-0.01,0-0.02,0-0.03,0c0.05,0,0.1,0.01,0.15,0.02C39.97,108.26,39.94,108.25,39.9,108.25z"/>
	<path class="st2" d="M26.05,110.62c0.02,0.07,0.06,0.14,0.11,0.21c0.06,0.07,0.12,0.12,0.2,0.16c-0.08-0.04-0.14-0.09-0.2-0.16
		C26.1,110.76,26.07,110.69,26.05,110.62z"/>
	<path class="st2" d="M33.32,99.29c-0.01,0-0.02,0.01-0.04,0.01c0.03,0,0.05,0,0.08,0C33.34,99.3,33.33,99.29,33.32,99.29z"/>
	<path class="st2" d="M52.89,45.3c-0.05,0-0.09,0-0.14,0.01c0.08-0.01,0.16-0.01,0.23,0C52.95,45.31,52.92,45.3,52.89,45.3z"/>
	<path class="st2" d="M58.32,58.33c0.02,0,0.03-0.01,0.05-0.01c-0.03,0-0.07,0-0.1,0C58.29,58.32,58.3,58.33,58.32,58.33z"/>
	<path class="st2" d="M45.95,43.78c-0.03,0-0.05,0.01-0.08,0.01c0.08-0.01,0.16-0.01,0.24,0C46.06,43.78,46,43.78,45.95,43.78z"/>
	<path class="st2" d="M49.55,45.81c-0.01,0-0.02,0.01-0.03,0.01C49.53,45.82,49.55,45.81,49.55,45.81
		C49.55,45.81,49.55,45.81,49.55,45.81z"/>
	<path class="st2" d="M56.55,45.01C56.51,45,56.48,45,56.44,45l-0.01,0.01C56.48,45.01,56.51,45,56.55,45.01z"/>
	<path class="st2" d="M59.89,46.64c-0.06,0-0.12,0.02-0.19,0.04C59.77,46.66,59.83,46.64,59.89,46.64
		C59.9,46.64,59.9,46.64,59.89,46.64z"/>
	<path class="st2" d="M61.9,50.1c-0.05,0-0.1,0.01-0.15,0.02c0.08-0.02,0.16-0.01,0.24,0C61.96,50.11,61.93,50.1,61.9,50.1z"/>
	<path class="st2" d="M45.37,60.2c0.03,0,0.05-0.01,0.08-0.01c-0.13,0.01-0.26,0-0.39-0.05C45.16,60.18,45.27,60.2,45.37,60.2z"/>
	<path class="st2" d="M48.66,61.1c0.05,0,0.1-0.02,0.14-0.03c-0.08,0.02-0.17,0.03-0.26,0.02C48.58,61.09,48.62,61.1,48.66,61.1z"/>
	<path class="st2" d="M55.31,59.93c0.09,0,0.19-0.02,0.28-0.06C55.5,59.92,55.4,59.93,55.31,59.93
		C55.3,59.93,55.3,59.93,55.31,59.93z"/>
	<path class="st2" d="M40.39,56.21c0.05,0,0.09-0.01,0.14-0.02c-0.06,0.01-0.12,0.02-0.17,0.02C40.37,56.2,40.38,56.21,40.39,56.21z
		"/>
	<path class="st2" d="M39.37,48.06c-0.01,0-0.01,0-0.01,0c0.09,0,0.18,0.01,0.27,0.04C39.54,48.07,39.45,48.06,39.37,48.06z"/>
	<path class="st2" d="M38.93,53.21c0.05,0,0.09,0,0.14-0.01c-0.08,0.01-0.16,0.01-0.23,0C38.87,53.2,38.9,53.21,38.93,53.21z"/>
	<path class="st2" d="M111.02,31.99c0-0.34-0.13-0.69-0.39-0.95c-0.26-0.26-0.6-0.39-0.95-0.39c0.34,0,0.69,0.13,0.95,0.39
		C110.89,31.3,111.02,31.65,111.02,31.99z"/>
	<path class="st2" d="M58.75,101.16c0.14-0.06,0.28-0.15,0.4-0.26c0.12-0.12,0.2-0.25,0.26-0.4c-0.06,0.14-0.15,0.28-0.26,0.4
		C59.03,101.02,58.9,101.1,58.75,101.16z"/>
	<path class="st2" d="M57.71,101.07c0.05,0.03,0.09,0.07,0.14,0.09C57.8,101.14,57.76,101.1,57.71,101.07L57.71,101.07z"/>
	<path class="st2" d="M50.52,58.84c0.01,0,0.01,0,0.02,0c0.13,0,0.25-0.01,0.38-0.01v0C50.79,58.83,50.66,58.84,50.52,58.84z"/>
	<path class="st2" d="M58.66,91.46L58.66,91.46c-0.12-0.04-0.23-0.07-0.35-0.07C58.42,91.39,58.54,91.43,58.66,91.46z"/>
	<path class="st2" d="M115.42,59.42c-0.05-0.01-0.11-0.04-0.16-0.04c-0.01,0-0.01,0-0.02,0l0.01,0.02
		C115.3,59.41,115.36,59.41,115.42,59.42z"/>
	<path class="st2" d="M119.28,62.4c0.38,0.25,0.74,0.53,1.05,0.89C120.01,62.94,119.65,62.65,119.28,62.4z"/>
	<path class="st2" d="M122.01,62.89c-0.04,0-0.08,0.01-0.12,0.02c0.05-0.01,0.11-0.01,0.16-0.01
		C122.04,62.9,122.03,62.89,122.01,62.89z"/>
	<path class="st2" d="M119.19,60.23c-0.02,0-0.04,0.01-0.06,0.02c0.03,0,0.06-0.01,0.09-0.01C119.21,60.24,119.2,60.23,119.19,60.23
		z"/>
	<path class="st2" d="M123.65,65.89c-0.01,0-0.02,0-0.02,0c0.02,0,0.05,0,0.07,0.01C123.69,65.9,123.67,65.89,123.65,65.89z"/>
	<path class="st2" d="M124.78,68.95c-0.02,0-0.05,0-0.07,0h0c0.09-0.01,0.18,0.02,0.27,0.04C124.91,68.98,124.85,68.95,124.78,68.95
		z"/>
	<path class="st2" d="M116.4,61.53c-0.02,0-0.04,0-0.07,0c0.18,0,0.37,0.02,0.55,0.03C116.72,61.55,116.56,61.53,116.4,61.53z"/>
	<path class="st2" d="M110.21,64.93c-0.03,0-0.07,0.01-0.1,0.02c0.07-0.01,0.15-0.02,0.23-0.01
		C110.3,64.93,110.25,64.93,110.21,64.93z"/>
	<path class="st2" d="M109.11,75.41c-0.03,0-0.05,0.01-0.08,0.01c0.08-0.01,0.16-0.02,0.24,0
		C109.21,75.41,109.16,75.41,109.11,75.41z"/>
	<path class="st2" d="M111.82,61.43C111.82,61.43,111.82,61.43,111.82,61.43c0.06,0,0.13,0.02,0.19,0.04
		C111.95,61.45,111.89,61.43,111.82,61.43z"/>
	<path class="st2" d="M110.19,80.87c0.01,0,0.02-0.01,0.03-0.01c-0.03,0-0.06-0.01-0.08-0.01
		C110.15,80.86,110.17,80.87,110.19,80.87z"/>
	<path class="st2" d="M119.28,62.4l0.58-1.05c0.06-0.11,0.09-0.22,0.09-0.34c0,0.11-0.03,0.23-0.09,0.34L119.28,62.4z"/>
	<path class="st2" d="M111.11,71.78c0,0-0.01,0-0.01,0C111.1,71.79,111.1,71.79,111.11,71.78
		C111.11,71.79,111.11,71.78,111.11,71.78z"/>
	<path class="st2" d="M113.46,83.45c0.01,0,0.02,0,0.03,0c-0.09,0-0.19-0.01-0.28-0.04C113.29,83.44,113.38,83.45,113.46,83.45z"/>
	<path class="st2" d="M123.11,79.04c-0.02-0.15-0.07-0.29-0.18-0.41c-0.04-0.04-0.08-0.08-0.13-0.12c0.05,0.04,0.1,0.08,0.13,0.12
		C123.03,78.75,123.09,78.89,123.11,79.04z"/>
	<path class="st2" d="M120.33,82.32c0.09-0.03,0.18-0.07,0.25-0.14c0.16-0.13,0.25-0.32,0.27-0.51c-0.02,0.19-0.11,0.38-0.27,0.51
		C120.5,82.25,120.42,82.29,120.33,82.32z"/>
	<path class="st2" d="M119.82,80.09L119.82,80.09c0.35-0.36,0.69-0.73,0.99-1.13h0C120.51,79.35,120.18,79.73,119.82,80.09z"/>
	<path class="st2" d="M121.66,77.71c0.21-0.36,0.4-0.73,0.58-1.1l1.03,0.46l-1.03-0.46C122.06,76.98,121.87,77.35,121.66,77.71z"/>
	<path class="st2" d="M28.36,112.75c0.1,0.08,0.22,0.12,0.34,0.12c0.01,0,0.01,0,0.02,0c0.06,0,0.11-0.02,0.17-0.04
		c-0.06,0.02-0.12,0.04-0.19,0.04C28.58,112.86,28.46,112.82,28.36,112.75z"/>
	<path class="st2" d="M117.6,81.65c0.19-0.07,0.37-0.16,0.55-0.26C117.97,81.49,117.79,81.58,117.6,81.65L117.6,81.65z"/>
	<path class="st2" d="M108.48,75.75c-0.03,0.04-0.05,0.09-0.07,0.14l0,0C108.44,75.84,108.46,75.79,108.48,75.75z"/>
	<polygon class="st2" points="110.06,77.13 110.06,77.13 110.54,77.23 110.54,77.23 	"/>
	<path class="st2" d="M119.88,60.68c-0.03-0.07-0.07-0.13-0.12-0.19c-0.06-0.06-0.12-0.12-0.2-0.16c0.08,0.04,0.15,0.1,0.2,0.16
		C119.81,60.55,119.85,60.61,119.88,60.68z"/>
	<path class="st2" d="M110.54,80.79l1.2-0.63c0.02,0.02,0.03,0.04,0.04,0.06c-0.01-0.02-0.03-0.04-0.04-0.06L110.54,80.79z"/>
	<path class="st2" d="M113.83,83.35c0.05-0.03,0.1-0.07,0.14-0.11l0,0C113.93,83.28,113.88,83.32,113.83,83.35z"/>
	<path class="st2" d="M124.72,76.88C124.72,76.88,124.72,76.88,124.72,76.88C124.72,76.88,124.72,76.88,124.72,76.88
		c0.12-0.28,0.07-0.59-0.12-0.8c-0.03-0.03-0.08-0.05-0.11-0.08c0.04,0.03,0.08,0.05,0.11,0.08
		C124.78,76.29,124.84,76.6,124.72,76.88z"/>
	<path class="st2" d="M95.94,86.22c-0.52,0-1.01-0.1-1.48-0.26l-23.56,34.01c0.34,0.27,0.65,0.58,0.9,0.93l28.85-11.51
		c-0.15-0.41-0.24-0.84-0.24-1.3c0-1.33,0.68-2.49,1.7-3.18l-5.59-18.76C96.33,86.18,96.14,86.22,95.94,86.22z"/>
	<path class="st2" d="M34.35,113.09c0.13,0.01,0.26,0.03,0.4,0.03c0.03,0,0.06,0,0.09,0c0.11,0,0.21-0.01,0.32-0.02
		c-0.13,0.01-0.27,0.03-0.41,0.02C34.62,113.12,34.49,113.1,34.35,113.09z"/>
	<path class="st2" d="M39.92,109.43l-1.02,0.04L39.92,109.43c0.33-0.01,0.58-0.29,0.56-0.61C40.49,109.14,40.24,109.41,39.92,109.43
		z"/>
	<path class="st2" d="M36.91,112.56c0.09-0.05,0.17-0.12,0.26-0.18h0C37.09,112.43,37.01,112.5,36.91,112.56z"/>
	<path class="st2" d="M34.17,114.19c0.03-0.06,0.06-0.13,0.07-0.21l0.11-0.89l-0.11,0.89C34.23,114.06,34.2,114.13,34.17,114.19z"/>
	<path class="st2" d="M31.62,113.46c-0.04,0.12-0.12,0.22-0.22,0.29C31.5,113.68,31.58,113.58,31.62,113.46l0.3-0.84
		c0.41,0.14,0.83,0.24,1.26,0.32c-0.43-0.08-0.85-0.18-1.26-0.32L31.62,113.46z"/>
	<path class="st2" d="M33.58,114.49c0.02,0,0.04,0,0.06,0.01c0.01,0,0.01,0,0.02,0c0.04,0,0.08-0.01,0.12-0.02
		c-0.04,0.01-0.09,0.02-0.14,0.02C33.62,114.49,33.6,114.49,33.58,114.49z"/>
	<path class="st2" d="M120.08,82.36c0.05,0,0.1-0.02,0.15-0.03c-0.06,0.01-0.12,0.02-0.18,0.02
		C120.07,82.36,120.07,82.36,120.08,82.36z"/>
	<path class="st2" d="M122.36,79.88c0.02,0,0.04-0.01,0.05-0.01c-0.03,0-0.07,0-0.1,0C122.33,79.87,122.35,79.88,122.36,79.88z"/>
	<path class="st2" d="M124.89,74.04c0.04,0,0.07-0.01,0.11-0.02c-0.07,0.01-0.14,0.02-0.22,0.01
		C124.82,74.03,124.86,74.04,124.89,74.04z"/>
	<path class="st2" d="M123.12,79.08c0.01,0.16-0.03,0.33-0.14,0.48C123.08,79.42,123.13,79.25,123.12,79.08z"/>
	<path class="st2" d="M124.03,77.33c0.01,0,0.01-0.01,0.02-0.01C124.04,77.32,124.03,77.33,124.03,77.33
		C124.02,77.33,124.03,77.33,124.03,77.33z"/>
	<path class="st2" d="M117.11,83.85c0.05,0,0.1,0,0.15-0.01c-0.08,0.02-0.16,0.01-0.24,0C117.05,83.83,117.08,83.85,117.11,83.85z"
		/>
	<path class="st0" d="M57.45,100.9L57.45,100.9c0.08,0.08,0.17,0.12,0.26,0.17v0C57.62,101.02,57.53,100.97,57.45,100.9z"/>
	<path class="st0" d="M50.92,58.83c0.14,0,0.28,0,0.42-0.01C51.21,58.82,51.06,58.82,50.92,58.83L50.92,58.83z"/>
	<path class="st0" d="M52.23,61.03c0.02,0,0.04,0,0.07,0c-0.07,0.01-0.13-0.01-0.2-0.02C52.14,61.01,52.18,61.03,52.23,61.03z"/>
	<path class="st0" d="M54.57,88.56c0.06,0,0.12,0.01,0.18,0.02l-1.82-26.4c-0.17,0.06-0.34,0.11-0.53,0.13
		c-0.06,0.01-0.12,0.01-0.18,0.01c-0.4,0-0.77-0.12-1.09-0.33l1.87,27.13C53.44,88.77,53.98,88.56,54.57,88.56z"/>
	<path class="st0" d="M115.23,59.39c-0.05,0-0.09,0-0.14,0.01c0.05-0.01,0.1,0.01,0.15,0.01L115.23,59.39z"/>
	<polygon class="st0" points="113.97,83.24 113.98,83.24 113.97,83.24 	"/>
	<path class="st0" d="M113.46,84.74c-0.04,0-0.07-0.02-0.11-0.02l-8.21,19.68c-0.3-0.07-0.6-0.13-0.92-0.13
		c-0.15,0-0.3,0.03-0.45,0.04l-5.57-18.7c1.51-0.81,2.54-2.39,2.54-4.22c0-0.14-0.03-0.27-0.04-0.4l7.41-3.07
		c-0.28-0.16-0.53-0.38-0.71-0.65c-0.17-0.26-0.27-0.54-0.31-0.84l-6.86,2.84c-0.79-1.59-2.4-2.68-4.29-2.68
		c-0.41,0-0.8,0.07-1.18,0.16l-2.97-6.41l-1.77-3.82c0.88-0.7,1.46-1.77,1.46-2.98c0-2.11-1.71-3.82-3.82-3.82
		c-0.26,0-0.51,0.03-0.76,0.08l-1.28-2.76L71.17,25.89l-1.5-3.23c0.88-0.7,1.46-1.77,1.46-2.98c0-0.04-0.01-0.07-0.01-0.11
		c-0.06-2.06-1.74-3.71-3.81-3.71c-2.07,0-3.75,1.65-3.81,3.71c0,0.04-0.01,0.07-0.01,0.11c0,2.11,1.71,3.82,3.82,3.82
		c0.26,0,0.51-0.03,0.76-0.08l1.49,3.21L84,57.76l0.93,2l0.37,0.81c-0.4,0.32-0.73,0.71-0.97,1.15l-21.57-5.89
		c-0.11,0.19-0.25,0.36-0.42,0.5c-0.37,0.32-0.84,0.49-1.33,0.49c-0.3,0-0.61-0.07-0.88-0.2c0.06,0.11,0.08,0.23,0.12,0.35
		l23.61,6.45c0,0.04-0.01,0.08-0.01,0.12c0,0.74,0.22,1.42,0.58,2l-24.8,24.94c0.16,0.1,0.31,0.21,0.44,0.35
		c0.32,0.32,0.5,0.71,0.61,1.11L85.68,66.8c0.58,0.35,1.25,0.57,1.98,0.57c0.26,0,0.51-0.03,0.76-0.08l4.74,10.21
		c-1.22,0.87-2.02,2.29-2.02,3.91c0,0.54,0.11,1.05,0.27,1.53L62.02,95.12c0.2,0.36,0.31,0.77,0.31,1.2c0,0.21-0.04,0.42-0.09,0.62
		L92.28,84.5c0.19,0.22,0.39,0.42,0.62,0.61l-23.58,34.04c-0.45-0.14-0.91-0.23-1.41-0.23c-0.61,0-1.2,0.13-1.73,0.34l-7.79-16.72
		c-0.03,0-0.06,0.01-0.09,0.01c-0.47,0-0.92-0.13-1.31-0.37c-0.07,0.29-0.19,0.56-0.35,0.8l8.02,17.22
		c-0.35,0.32-0.64,0.69-0.89,1.1l-22.67-9.23c-0.03,0.27-0.1,0.54-0.25,0.78c-0.18,0.31-0.46,0.55-0.79,0.71l23.1,9.41
		c-0.04,0.25-0.08,0.5-0.08,0.76c0,2.66,2.15,4.81,4.81,4.81c2.66,0,4.81-2.15,4.81-4.81c0-0.42-0.07-0.82-0.17-1.21l29.1-11.61
		c0.68,0.63,1.58,1.02,2.58,1.02c2.11,0,3.82-1.71,3.82-3.82c0-1.15-0.52-2.17-1.32-2.87l8.74-20.95c-0.11-0.15-0.2-0.31-0.27-0.49
		C114.82,84.37,114.17,84.74,113.46,84.74z M100.41,108.1c0,0.46,0.09,0.89,0.24,1.3L71.8,120.91c-0.26-0.35-0.56-0.66-0.9-0.93
		l23.56-34.01c0.47,0.15,0.96,0.26,1.48,0.26c0.2,0,0.39-0.04,0.58-0.06l5.59,18.76C101.08,105.6,100.41,106.77,100.41,108.1z"/>
	<path class="st0" d="M18.09,66.68c0.01,0,0.03,0,0.04-0.01l12.05-27.81c0.27,0.06,0.56,0.1,0.85,0.1c0.91,0,1.73-0.33,2.39-0.86
		l6.84,6.36c0.19-0.3,0.45-0.55,0.78-0.72c0.25-0.13,0.53-0.19,0.81-0.21l-7.35-6.83c0.21-0.48,0.34-1,0.34-1.55
		c0-0.36-0.07-0.71-0.16-1.04L60.85,23.2c-0.29-0.51-0.51-1.06-0.67-1.64l-26.36,11c-0.7-0.75-1.68-1.22-2.79-1.22
		c-2.11,0-3.82,1.71-3.82,3.82c0,1.18,0.54,2.22,1.38,2.92L16.64,65.68C17.26,65.78,17.8,66.15,18.09,66.68z"/>
	<path class="st0" d="M27.27,98.32c-0.01,0-0.01,0.01-0.02,0.01c0.02,0,0.04,0.01,0.07,0.01C27.3,98.34,27.28,98.32,27.27,98.32z"/>
	<path class="st0" d="M39.72,111.54c0.09,0.12,0.13,0.27,0.11,0.42C39.84,111.8,39.8,111.66,39.72,111.54z"/>
	<path class="st0" d="M99.17,33.57c0.03-0.01,0.05-0.02,0.08-0.02c-0.33-0.45-0.52-0.99-0.52-1.56c0-0.17,0.02-0.33,0.05-0.49
		l-24.34-9.95c-0.16,0.58-0.38,1.13-0.67,1.64L99.17,33.57z"/>
	<path class="st0" d="M115.7,82c0.14,0,0.28-0.01,0.42-0.02c-0.18,0.01-0.37,0.01-0.55,0C115.62,81.99,115.66,82,115.7,82z"/>
	<path class="st0" d="M15.09,73.28l-0.11,0.11L15.09,73.28c0.15,0.07,0.3,0.14,0.46,0.18v0C15.39,73.41,15.24,73.35,15.09,73.28z"/>
	<path class="st0" d="M17.06,74.31L17.06,74.31c0,0.1-0.02,0.2-0.06,0.29C17.04,74.52,17.06,74.42,17.06,74.31z"/>
	<path class="st0" d="M26.39,97.26c0.18-0.1,0.38-0.15,0.58-0.18l-9.11-21.45c-0.37,0.44-0.92,0.73-1.55,0.73
		c-0.03,0-0.05-0.01-0.07-0.01l9.3,21.89C25.69,97.83,25.98,97.47,26.39,97.26z"/>
	<polygon class="st0" points="27.53,98.4 27.52,98.39 27.53,98.4 	"/>
	<path class="st0" d="M39.24,112.48c0.07,0,0.13-0.03,0.19-0.05c-0.07,0.02-0.13,0.05-0.21,0.05
		C39.23,112.48,39.24,112.48,39.24,112.48z"/>
	<path class="st0" d="M37.18,112.37c0.25-0.18,0.49-0.38,0.7-0.61C37.67,112,37.43,112.19,37.18,112.37L37.18,112.37z"/>
	<path class="st0" d="M26.68,98.97c0.01,0.08,0.03,0.15,0.07,0.22l0.41,0.78l-0.41-0.78C26.71,99.12,26.69,99.04,26.68,98.97z"/>
	<path class="st0" d="M39.53,112.4c0.09-0.05,0.17-0.12,0.22-0.22c0.04-0.07,0.07-0.15,0.08-0.22c-0.01,0.08-0.04,0.15-0.08,0.22
		C39.7,112.28,39.62,112.35,39.53,112.4z"/>
	<path class="st0" d="M107.11,44.11l6.23,15.32c0.05-0.14,0.11-0.27,0.19-0.4c0.28-0.43,0.7-0.74,1.2-0.87l-6.36-15.62
		c-0.09-0.05-0.18-0.08-0.26-0.14C108.02,43.11,107.64,43.71,107.11,44.11z"/>
	<path class="st0" d="M61.01,55.54c0.01,0,0.02-0.01,0.03-0.01c-0.02,0-0.05,0-0.07,0C60.98,55.53,61,55.54,61.01,55.54z"/>
	<path class="st0" d="M18.92,70.24c-0.05-0.2-0.12-0.39-0.22-0.57C18.79,69.85,18.87,70.04,18.92,70.24L18.92,70.24z"/>
	<path class="st0" d="M39.21,105.7c0.1,0.13,0.14,0.29,0.12,0.44C39.34,105.99,39.3,105.83,39.21,105.7z"/>
	<path class="st0" d="M42.84,58.51c0.01,0,0.01,0,0.02,0c-0.05,0-0.1-0.01-0.15-0.02C42.75,58.49,42.79,58.51,42.84,58.51z"/>
	<polygon class="st0" points="108.96,76.9 110.06,77.13 110.06,77.13 	"/>
	<path class="st0" d="M108.42,75.89c-0.01,0.04-0.04,0.07-0.05,0.11C108.38,75.96,108.41,75.93,108.42,75.89L108.42,75.89z"/>
	<path class="st0" d="M38.74,105.47c-0.01,0-0.02,0.01-0.04,0.01c0.02,0,0.05-0.01,0.07,0C38.76,105.48,38.75,105.47,38.74,105.47z"
		/>
	<path class="st0" d="M49.09,101.81c-0.31-0.31-0.49-0.69-0.6-1.08l-8.88,3.68c0.23,0.12,0.45,0.29,0.62,0.51
		c0.23,0.3,0.35,0.64,0.37,0.99l8.99-3.72C49.41,102.08,49.24,101.96,49.09,101.81z"/>
	<path class="st0" d="M49.73,100.5c0.06,0.14,0.15,0.28,0.26,0.4c0.12,0.12,0.25,0.21,0.4,0.26c-0.14-0.06-0.28-0.15-0.4-0.26
		C49.88,100.78,49.79,100.65,49.73,100.5z"/>
	<path class="st0" d="M51.3,101.16c0.14-0.06,0.28-0.15,0.4-0.26l0.95-0.95l-0.95,0.95C51.58,101.02,51.44,101.1,51.3,101.16z"/>
	<path class="st0" d="M110.55,69.96c0.05,0,0.1,0,0.15-0.01c-0.08,0.02-0.16,0.01-0.23,0C110.5,69.95,110.52,69.96,110.55,69.96z"/>
	<path class="st0" d="M94.8,66.42l14.02,3.83c-0.12-0.2-0.22-0.41-0.26-0.65c-0.08-0.42-0.03-0.84,0.14-1.22l-13.56-3.7
		C95.09,65.27,94.98,65.85,94.8,66.42z"/>
	<path class="st0" d="M41.64,59.41c-0.52-0.37-0.79-0.94-0.83-1.53L20.5,67.81c0.2,0.44,0.25,0.94,0.12,1.4
		c0.15,0.08,0.29,0.19,0.41,0.31l20.64-10.09C41.66,59.42,41.65,59.42,41.64,59.41z"/>
	<path class="st0" d="M26.27,77.62l-5.68-3.68c-0.09,0.31-0.25,0.61-0.5,0.85c-0.21,0.21-0.46,0.36-0.73,0.46l6.02,3.91
		C25.62,78.62,25.91,78.1,26.27,77.62z"/>
	<path class="st0" d="M17.06,73.46L17.06,73.46c0.16-0.05,0.32-0.11,0.46-0.18l0.6,0.6l-0.6-0.6
		C17.38,73.35,17.23,73.41,17.06,73.46z"/>
	<path class="st0" d="M18.12,73.88c0.15,0.15,0.34,0.22,0.53,0.22c0.19,0,0.39-0.07,0.53-0.22c-0.15,0.15-0.34,0.22-0.53,0.22
		C18.46,74.1,18.27,74.02,18.12,73.88z"/>
	<path class="st0" d="M30.63,97.83c-0.03-0.01-0.07-0.01-0.1-0.01l0,0.01C30.56,97.83,30.6,97.82,30.63,97.83z"/>
	<path class="st0" d="M30.81,89.38l-0.24,7.16c0.13,0.01,0.26,0.02,0.39,0.05c0.48,0.13,0.89,0.44,1.14,0.87
		c0.09,0.15,0.15,0.32,0.19,0.49l0.29-8.49C31.99,89.52,31.4,89.49,30.81,89.38z"/>
	<path class="st0" d="M54.57,44.88c0.33-0.7,1.04-1.18,1.85-1.18c0.12,0,0.24,0.01,0.37,0.03c0.07,0.01,0.14,0.04,0.21,0.06
		l7.98-17.21c-0.57-0.19-1.1-0.45-1.6-0.76l-8.82,19.03C54.56,44.87,54.56,44.88,54.57,44.88z"/>
	<path class="st0" d="M56.44,45c-0.01,0-0.02,0-0.03,0c-0.03,0-0.06,0.01-0.1,0.02c0.04-0.01,0.08,0,0.12,0L56.44,45z"/>
	<path class="st0" d="M55.29,46.73c-0.14,0-0.28,0.02-0.43,0.03c0.2-0.02,0.4-0.03,0.61-0.03C55.41,46.73,55.35,46.73,55.29,46.73z"
		/>
	<path class="st0" d="M41.98,44.81c-0.01,0-0.02,0.01-0.02,0.01c0.03,0,0.05,0.01,0.08,0.01C42.02,44.82,42,44.81,41.98,44.81z"/>
	<path class="st0" d="M59.15,91.74c-0.14-0.14-0.31-0.23-0.49-0.28l0,0C58.84,91.52,59.01,91.6,59.15,91.74z"/>
	<path class="st0" d="M91.87,57.98l8.71-15.18c-0.4-0.12-0.77-0.33-1.07-0.64c-0.14-0.14-0.25-0.28-0.35-0.44l-8.87,15.46
		C90.84,57.39,91.38,57.65,91.87,57.98z"/>
	<path class="st3" d="M61.38,54.12l-1.12-0.63c0.16-0.51,0.23-1.04,0.23-1.58l1.56-0.32c0.13-0.03,0.24-0.08,0.34-0.16
		c0.2-0.17,0.31-0.45,0.25-0.73c-0.02-0.1-0.06-0.18-0.11-0.26c-0.02-0.03-0.04-0.04-0.06-0.07c-0.04-0.05-0.08-0.09-0.13-0.13
		c-0.03-0.02-0.06-0.03-0.09-0.05c-0.05-0.03-0.1-0.05-0.15-0.06c-0.04-0.01-0.07-0.01-0.11-0.02c-0.08-0.01-0.16-0.02-0.24,0
		l-1.46,0.3c-0.17-0.55-0.44-1.07-0.8-1.56l0.94-0.92c0.3-0.29,0.3-0.77,0.01-1.07c-0.07-0.07-0.16-0.13-0.25-0.17
		c-0.03-0.01-0.07-0.01-0.1-0.02c-0.06-0.02-0.12-0.04-0.18-0.04c-0.06,0-0.13,0.02-0.19,0.04c-0.03,0.01-0.06,0.01-0.09,0.02
		c-0.09,0.04-0.18,0.09-0.25,0.16l-0.92,0.91c-0.46-0.34-0.96-0.59-1.49-0.77l0.2-1.12c0.08-0.41-0.2-0.8-0.61-0.88
		c-0.04-0.01-0.07,0-0.11,0c-0.04,0-0.08,0-0.12,0c-0.04,0-0.07,0.01-0.11,0.02c-0.05,0.02-0.1,0.04-0.15,0.07
		c-0.03,0.02-0.06,0.03-0.09,0.05c-0.05,0.04-0.09,0.08-0.13,0.13c-0.02,0.02-0.04,0.04-0.06,0.07c-0.05,0.08-0.09,0.17-0.11,0.26
		l-0.2,1.12c-0.2-0.01-0.4,0.01-0.61,0.03c-0.09,0.01-0.18,0.01-0.26,0.02c-0.26,0.03-0.52,0.08-0.78,0.16l-0.19-1.02
		c-0.02-0.1-0.06-0.18-0.11-0.26c-0.02-0.03-0.04-0.05-0.06-0.07c-0.04-0.05-0.08-0.09-0.13-0.13c-0.03-0.02-0.06-0.04-0.09-0.05
		c-0.05-0.03-0.1-0.05-0.15-0.07c-0.04-0.01-0.07-0.01-0.11-0.02c-0.08-0.01-0.15-0.02-0.23,0c-0.41,0.08-0.68,0.47-0.6,0.88
		l0.27,1.43c-0.17,0.11-0.34,0.21-0.49,0.34c-0.17,0.15-0.36,0.25-0.56,0.33c-0.07,0.03-0.13,0.03-0.2,0.05
		c-0.14,0.04-0.27,0.07-0.42,0.07c-0.02,0-0.04,0.01-0.06,0.01c-0.1,0-0.2-0.02-0.3-0.04c-0.06-0.01-0.12-0.01-0.18-0.02
		c-0.18-0.05-0.36-0.11-0.52-0.21l0.57-1.27c0.17-0.38,0-0.83-0.38-1c-0.1-0.04-0.2-0.06-0.3-0.06c-0.01,0-0.02,0.01-0.03,0.01
		c-0.12,0-0.23,0.04-0.33,0.1c-0.03,0.02-0.05,0.03-0.08,0.05c-0.1,0.07-0.2,0.17-0.25,0.29l-0.37,0.82
		c-0.63-0.51-1.35-0.84-2.11-1.01l0.3-1.38c0.09-0.41-0.17-0.81-0.58-0.9c-0.08-0.02-0.16-0.01-0.24,0c-0.04,0-0.07,0.01-0.11,0.02
		c-0.05,0.01-0.11,0.04-0.16,0.06c-0.03,0.02-0.06,0.03-0.09,0.05c-0.05,0.04-0.09,0.08-0.13,0.13c-0.02,0.02-0.04,0.04-0.06,0.07
		c-0.05,0.08-0.09,0.16-0.11,0.26l-0.35,1.58c-0.56,0.04-1.11,0.17-1.64,0.39l-0.58-1.12c-0.06-0.12-0.15-0.2-0.25-0.27
		c-0.03-0.02-0.06-0.03-0.09-0.05c-0.09-0.04-0.18-0.07-0.28-0.08c-0.03,0-0.05-0.01-0.08-0.01c-0.11,0-0.22,0.02-0.32,0.08
		c-0.37,0.19-0.52,0.65-0.33,1.02l0.62,1.2c-0.03,0.02-0.06,0.04-0.08,0.06c-0.45,0.39-0.81,0.85-1.09,1.34l-1.12-0.41
		c-0.09-0.03-0.18-0.04-0.27-0.04c-0.13,0-0.26,0.05-0.37,0.12c-0.02,0.02-0.05,0.03-0.07,0.05c-0.11,0.08-0.2,0.19-0.25,0.33
		c-0.14,0.39,0.06,0.83,0.45,0.97l1.07,0.39c-0.12,0.52-0.16,1.05-0.13,1.57l-1.25,0.23c-0.41,0.08-0.68,0.47-0.6,0.88
		c0.02,0.1,0.06,0.19,0.11,0.26c0.02,0.03,0.04,0.04,0.06,0.07c0.04,0.05,0.08,0.09,0.13,0.13c0.03,0.02,0.06,0.04,0.09,0.05
		c0.05,0.03,0.1,0.05,0.15,0.07c0.04,0.01,0.07,0.01,0.11,0.02c0.08,0.01,0.15,0.02,0.23,0l1.3-0.24c0.14,0.38,0.34,0.74,0.57,1.08
		l-1.02,0.83c-0.35,0.26-0.37,0.74-0.11,1.06c0.07,0.09,0.16,0.15,0.25,0.2c0.03,0.02,0.07,0.02,0.1,0.03
		c0.07,0.02,0.13,0.04,0.2,0.04c0.06,0,0.12,0,0.17-0.02c0.03-0.01,0.06-0.01,0.09-0.01c0.09-0.03,0.17-0.07,0.25-0.13l1.04-0.85
		c0.36,0.36,0.73,0.7,1.12,1.01l-0.8,1.11c-0.24,0.34-0.17,0.81,0.17,1.05c0.07,0.05,0.14,0.08,0.22,0.11
		c0.03,0.01,0.05,0.01,0.08,0.01c0.05,0.01,0.1,0.02,0.15,0.02c0.06,0,0.11-0.02,0.17-0.03c0.03-0.01,0.05-0.01,0.08-0.02
		c0.08-0.03,0.16-0.07,0.22-0.13c0.05-0.04,0.09-0.08,0.12-0.13l0.82-1.13c0.36,0.22,0.72,0.41,1.1,0.59l-0.68,1.48
		c-0.17,0.38-0.01,0.83,0.37,1c0.13,0.06,0.26,0.07,0.39,0.05c0.03,0,0.05-0.01,0.08-0.01c0.12-0.03,0.24-0.07,0.34-0.15
		c0.08-0.07,0.15-0.16,0.2-0.26l0.71-1.55c0.46,0.15,0.92,0.28,1.39,0.37l-0.25,1.65c-0.06,0.41,0.22,0.8,0.63,0.86
		c0.09,0.01,0.17,0,0.26-0.02c0.03-0.01,0.06-0.01,0.09-0.02c0.09-0.03,0.18-0.08,0.25-0.14c0.13-0.11,0.23-0.27,0.26-0.46
		l0.25-1.65c0.29,0.02,0.58,0.03,0.87,0.03c0.13,0,0.26-0.01,0.4-0.01c0.14,0,0.28,0,0.42-0.01l0.13,1.52
		c0.01,0.1,0.04,0.2,0.08,0.28c0.01,0.03,0.04,0.05,0.06,0.08c0.04,0.05,0.07,0.1,0.12,0.14c0.03,0.02,0.06,0.04,0.09,0.06
		c0.05,0.03,0.09,0.06,0.15,0.08c0.04,0.01,0.08,0.02,0.12,0.02c0.07,0.01,0.13,0.03,0.2,0.02c0.16-0.01,0.31-0.08,0.43-0.18
		c0.18-0.15,0.28-0.39,0.26-0.64l-0.13-1.57c0.44-0.08,0.87-0.18,1.3-0.3l0.46,1.12c0.05,0.13,0.15,0.23,0.25,0.31
		c0.02,0.02,0.05,0.04,0.08,0.05c0.11,0.06,0.24,0.11,0.37,0.11c0.1,0,0.19-0.02,0.29-0.05c0.08-0.03,0.15-0.07,0.21-0.12
		c0.24-0.21,0.33-0.55,0.21-0.86l-0.43-1.06c0.5-0.22,0.99-0.48,1.47-0.77l0.66,0.94c0.07,0.1,0.16,0.17,0.25,0.22
		c0.03,0.02,0.06,0.02,0.09,0.04c0.07,0.03,0.14,0.05,0.22,0.05c0.03,0,0.07,0,0.1,0c0.13-0.01,0.27-0.04,0.38-0.12
		c0.02-0.01,0.04-0.03,0.06-0.05c0.29-0.25,0.35-0.68,0.13-1l-0.65-0.94c0.13-0.11,0.27-0.2,0.4-0.31c0.36-0.31,0.65-0.67,0.9-1.04
		l1.04,0.59c0.11,0.06,0.22,0.08,0.33,0.09c0.02,0,0.05,0,0.07,0c0.06,0,0.11-0.01,0.17-0.03c0.03-0.01,0.05-0.01,0.08-0.02
		c0.08-0.03,0.15-0.07,0.22-0.13c0.07-0.06,0.12-0.12,0.17-0.2C61.87,54.79,61.74,54.33,61.38,54.12z M53.43,54.68
		c-0.08,0.07-0.18,0.12-0.27,0.15c-0.03,0.01-0.06,0.01-0.1,0.02c-0.05,0.01-0.11,0.03-0.16,0.03c-0.01,0-0.02-0.01-0.03-0.01
		c-0.07,0-0.14-0.02-0.22-0.05c-0.04-0.01-0.07-0.01-0.11-0.03c-0.1-0.05-0.2-0.12-0.27-0.21c-0.3-0.35-0.25-0.87,0.09-1.16
		c0.08-0.07,0.18-0.12,0.27-0.15c0.03-0.01,0.07-0.01,0.1-0.02c0.05-0.01,0.11-0.03,0.16-0.03c0.01,0,0.02,0.01,0.03,0.01
		c0.07,0,0.14,0.02,0.22,0.05c0.04,0.01,0.07,0.01,0.11,0.03c0.1,0.05,0.2,0.12,0.27,0.21C53.82,53.86,53.78,54.38,53.43,54.68z
		 M55.99,53.32c-0.13,0.11-0.27,0.19-0.42,0.24c-0.05,0.02-0.1,0.02-0.15,0.03c-0.09,0.02-0.17,0.04-0.26,0.04
		c-0.02,0-0.03-0.01-0.05-0.01c-0.12,0-0.23-0.04-0.34-0.07c-0.06-0.02-0.11-0.02-0.17-0.05c-0.16-0.08-0.31-0.18-0.43-0.32
		c-0.46-0.54-0.4-1.35,0.14-1.81c0.13-0.11,0.27-0.19,0.43-0.24c0.05-0.02,0.1-0.02,0.15-0.03c0.09-0.02,0.17-0.04,0.26-0.04
		c0.02,0,0.03,0.01,0.05,0.01c0.12,0,0.22,0.04,0.34,0.07c0.06,0.02,0.11,0.02,0.17,0.05c0.16,0.08,0.31,0.18,0.43,0.32
		C56.6,52.04,56.53,52.85,55.99,53.32z"/>
	<path class="st4" d="M55.16,53.62c0.09,0,0.17-0.03,0.26-0.04c-0.1,0.02-0.2,0.04-0.3,0.03C55.13,53.61,55.14,53.62,55.16,53.62z"
		/>
	<path class="st4" d="M55.16,51.05c-0.09,0-0.17,0.03-0.26,0.04c0.1-0.02,0.2-0.04,0.3-0.03C55.19,51.06,55.18,51.05,55.16,51.05z"
		/>
	<path class="st4" d="M52.9,53.23c-0.06,0-0.11,0.02-0.16,0.03c0.06-0.01,0.13-0.02,0.19-0.02C52.92,53.24,52.91,53.23,52.9,53.23z"
		/>
	<path class="st4" d="M52.9,54.88c0.06,0,0.11-0.02,0.16-0.03c-0.06,0.01-0.13,0.02-0.2,0.02C52.88,54.87,52.89,54.88,52.9,54.88z"
		/>
	<g>
		<path class="st4" d="M55.71,51.18c-0.05-0.03-0.11-0.03-0.17-0.05c-0.11-0.04-0.22-0.07-0.34-0.07c-0.1,0-0.2,0.01-0.3,0.03
			c-0.05,0.01-0.1,0.01-0.15,0.03c-0.15,0.05-0.3,0.13-0.43,0.24c-0.54,0.46-0.6,1.27-0.14,1.81c0.12,0.14,0.27,0.25,0.43,0.32
			c0.05,0.03,0.11,0.03,0.17,0.05c0.11,0.04,0.22,0.07,0.34,0.07c0.1,0,0.2-0.01,0.3-0.03c0.05-0.01,0.1-0.01,0.15-0.03
			c0.15-0.05,0.3-0.13,0.42-0.24c0.54-0.46,0.6-1.27,0.14-1.81C56.02,51.36,55.87,51.26,55.71,51.18z"/>
	</g>
	<g>
		<path class="st4" d="M53.25,53.31c-0.03-0.02-0.07-0.02-0.11-0.03c-0.07-0.02-0.14-0.04-0.22-0.05c-0.07,0-0.13,0.01-0.19,0.02
			c-0.03,0.01-0.07,0.01-0.1,0.02c-0.1,0.03-0.19,0.08-0.27,0.15c-0.35,0.3-0.39,0.82-0.09,1.16c0.08,0.09,0.17,0.16,0.27,0.21
			c0.03,0.02,0.07,0.02,0.11,0.03c0.07,0.02,0.14,0.04,0.22,0.05c0.07,0,0.13-0.01,0.2-0.02c0.03-0.01,0.07-0.01,0.1-0.02
			c0.1-0.03,0.19-0.08,0.27-0.15c0.35-0.3,0.39-0.82,0.09-1.16C53.45,53.43,53.35,53.36,53.25,53.31z"/>
	</g>
	<path class="st3" d="M124.99,72.53l-1.65-0.23c0.04-0.57,0.03-1.13-0.01-1.7l1.52-0.15c0.42-0.04,0.72-0.41,0.68-0.82
		c-0.02-0.16-0.08-0.31-0.18-0.43c-0.07-0.08-0.17-0.15-0.27-0.19c-0.03-0.01-0.07-0.01-0.11-0.02c-0.09-0.02-0.17-0.05-0.27-0.04
		l-1.57,0.15c-0.08-0.44-0.19-0.87-0.32-1.3l1.12-0.47c0.39-0.16,0.57-0.6,0.4-0.99c-0.03-0.08-0.08-0.15-0.13-0.21
		c-0.06-0.07-0.14-0.13-0.23-0.17c-0.02-0.01-0.05-0.02-0.07-0.03c-0.07-0.03-0.14-0.04-0.22-0.05c-0.02,0-0.05-0.01-0.07-0.01
		c-0.09,0-0.18,0.02-0.27,0.05l-1.05,0.44c-0.22-0.5-0.5-0.99-0.79-1.46l0.94-0.67c0.34-0.24,0.42-0.71,0.18-1.05
		c-0.01-0.02-0.03-0.04-0.05-0.06c-0.07-0.08-0.15-0.14-0.24-0.18c-0.03-0.01-0.06-0.02-0.09-0.03c-0.06-0.02-0.13-0.04-0.19-0.04
		c-0.05,0-0.11,0-0.16,0.01c-0.03,0-0.05,0.01-0.08,0.01c-0.08,0.02-0.16,0.06-0.24,0.11l-0.94,0.67c-0.11-0.13-0.2-0.27-0.32-0.4
		c-0.31-0.36-0.67-0.64-1.05-0.89l0.58-1.05c0.06-0.11,0.09-0.22,0.09-0.34c0-0.11-0.02-0.23-0.06-0.33
		c-0.03-0.07-0.07-0.13-0.12-0.19c-0.06-0.06-0.12-0.12-0.2-0.16c-0.11-0.06-0.22-0.08-0.33-0.09c-0.03,0-0.06,0.01-0.09,0.01
		c-0.09,0.01-0.18,0.03-0.26,0.07c-0.03,0.01-0.06,0.03-0.09,0.05c-0.1,0.07-0.19,0.15-0.25,0.26l-0.62,1.13
		c-0.25-0.08-0.51-0.13-0.77-0.16c-0.09-0.01-0.18-0.01-0.26-0.02c-0.18-0.02-0.36-0.03-0.55-0.03l-0.34-1.56
		c-0.03-0.13-0.09-0.24-0.17-0.34c-0.08-0.09-0.19-0.16-0.3-0.2c-0.03-0.01-0.07-0.02-0.11-0.02c-0.06-0.01-0.12-0.01-0.18-0.01
		c-0.05,0-0.1-0.02-0.15-0.01c-0.1,0.02-0.19,0.06-0.27,0.12c-0.16,0.11-0.27,0.29-0.31,0.48c-0.02,0.1-0.02,0.2,0,0.3l0.32,1.46
		c-0.55,0.17-1.07,0.45-1.55,0.82l-0.93-0.93c-0.07-0.07-0.16-0.13-0.25-0.16c-0.03-0.01-0.06-0.01-0.09-0.02
		c-0.06-0.02-0.13-0.04-0.19-0.04c-0.06,0-0.12,0.02-0.18,0.04c-0.03,0.01-0.07,0.01-0.1,0.02c-0.09,0.04-0.18,0.09-0.25,0.17
		c-0.07,0.07-0.13,0.16-0.17,0.25c-0.11,0.27-0.05,0.6,0.17,0.82l0.92,0.91c-0.34,0.46-0.58,0.97-0.75,1.5l-1.12-0.19
		c-0.08-0.01-0.15,0-0.23,0.01c-0.04,0.01-0.08,0.01-0.11,0.02c-0.05,0.02-0.1,0.04-0.15,0.07c-0.03,0.02-0.06,0.03-0.09,0.05
		c-0.05,0.04-0.09,0.08-0.13,0.13c-0.02,0.02-0.04,0.04-0.06,0.07c-0.05,0.08-0.09,0.17-0.1,0.27c-0.07,0.41,0.21,0.8,0.62,0.87
		l1.12,0.19c-0.01,0.55,0.06,1.11,0.22,1.65l-1.02,0.2c-0.41,0.08-0.68,0.48-0.6,0.89c0.02,0.1,0.06,0.18,0.11,0.26
		c0.02,0.03,0.04,0.04,0.06,0.07c0.04,0.05,0.08,0.09,0.13,0.13c0.03,0.02,0.06,0.03,0.09,0.05c0.05,0.03,0.1,0.05,0.15,0.07
		c0.04,0.01,0.07,0.01,0.11,0.02c0.08,0.01,0.15,0.02,0.23,0l1.43-0.28c0.11,0.16,0.21,0.33,0.35,0.49c0.56,0.64,0.61,1.55,0.2,2.25
		l-1.27-0.55c-0.1-0.04-0.2-0.06-0.3-0.06c-0.01,0-0.01,0-0.02,0c-0.12,0-0.24,0.04-0.35,0.1c-0.03,0.02-0.05,0.03-0.08,0.05
		c-0.1,0.08-0.2,0.17-0.25,0.3c-0.04,0.1-0.06,0.2-0.06,0.29c0,0.1,0.02,0.19,0.05,0.28c0.07,0.18,0.21,0.33,0.4,0.42l0.83,0.36
		c-0.25,0.32-0.45,0.66-0.62,1.01c-0.16,0.36-0.28,0.73-0.37,1.11h0l-1.19-0.25l-0.19-0.04c-0.08-0.02-0.16-0.01-0.24,0
		c-0.04,0-0.07,0.01-0.11,0.02c-0.05,0.01-0.11,0.04-0.15,0.06c-0.03,0.02-0.06,0.03-0.09,0.05c-0.05,0.04-0.09,0.08-0.13,0.13
		c-0.02,0.02-0.04,0.04-0.06,0.07c-0.03,0.04-0.04,0.09-0.06,0.14c-0.02,0.04-0.04,0.07-0.05,0.12c0,0,0,0,0,0
		c-0.02,0.1-0.02,0.2,0,0.3c0.02,0.1,0.06,0.19,0.11,0.27c0.11,0.16,0.27,0.28,0.48,0.33l1.1,0.23l0.48,0.1v0h0
		c0.02,0.28,0.07,0.56,0.14,0.83c0.07,0.27,0.16,0.54,0.27,0.8l-1.12,0.59c-0.37,0.19-0.51,0.65-0.32,1.02
		c0.06,0.12,0.15,0.2,0.25,0.27c0.03,0.02,0.06,0.03,0.09,0.05c0.09,0.04,0.18,0.07,0.27,0.07c0.03,0,0.06,0.01,0.08,0.01
		c0.11,0,0.22-0.03,0.32-0.08l1.2-0.63c0.02,0.02,0.03,0.04,0.04,0.06c0.01,0.01,0.01,0.02,0.02,0.02c0.2,0.23,0.41,0.42,0.64,0.6
		c0.23,0.18,0.47,0.33,0.71,0.48l-0.4,1.13c-0.14,0.39,0.07,0.82,0.46,0.96c0.09,0.03,0.19,0.04,0.28,0.04
		c0.03,0,0.05-0.01,0.07-0.01c0.06-0.01,0.13-0.02,0.18-0.05c0.03-0.01,0.05-0.02,0.08-0.04c0.05-0.03,0.1-0.07,0.15-0.11
		c0,0,0,0,0,0c0.02-0.02,0.04-0.04,0.06-0.06c0.06-0.07,0.11-0.15,0.14-0.24l0.37-1.07c0.34,0.08,0.68,0.11,1.03,0.11
		c0.18,0,0.37,0.01,0.55,0l0.25,1.25c0.02,0.1,0.06,0.18,0.11,0.26c0.02,0.03,0.04,0.04,0.06,0.07c0.04,0.05,0.08,0.09,0.13,0.13
		c0.03,0.02,0.06,0.03,0.09,0.05c0.05,0.03,0.1,0.05,0.15,0.06c0.04,0.01,0.07,0.01,0.11,0.02c0.08,0.01,0.16,0.02,0.24,0
		c0.41-0.08,0.68-0.48,0.6-0.89l-0.25-1.29v0c0.19-0.07,0.37-0.16,0.55-0.26c0.18-0.1,0.35-0.21,0.53-0.32l0.84,1.01
		c0.07,0.09,0.16,0.16,0.25,0.2c0.03,0.02,0.06,0.02,0.1,0.03c0.06,0.02,0.13,0.04,0.2,0.04c0.06,0,0.12-0.01,0.18-0.02
		c0.03-0.01,0.06-0.01,0.09-0.02c0.09-0.03,0.18-0.07,0.25-0.14c0.16-0.13,0.25-0.32,0.27-0.51c0.01-0.1,0-0.19-0.03-0.29
		c-0.03-0.09-0.08-0.18-0.14-0.26l-0.86-1.03v0c0.35-0.36,0.69-0.73,0.99-1.13h0l1.12,0.78c0.12,0.08,0.25,0.11,0.39,0.12
		c0.03,0,0.07,0,0.1,0c0.07-0.01,0.15-0.02,0.22-0.05c0.03-0.01,0.06-0.02,0.09-0.04c0.1-0.05,0.19-0.12,0.25-0.22
		c0.1-0.15,0.15-0.31,0.14-0.48c0-0.02-0.01-0.03-0.01-0.04c-0.02-0.15-0.07-0.29-0.18-0.41c-0.04-0.04-0.08-0.08-0.13-0.12
		l-1.14-0.8c0.21-0.36,0.4-0.73,0.58-1.1l1.03,0.46l0.46,0.2c0.1,0.04,0.2,0.06,0.3,0.06c0.01,0,0.02,0,0.03,0
		c0.12,0,0.23-0.04,0.34-0.1c0.03-0.02,0.05-0.03,0.08-0.05c0.1-0.08,0.2-0.17,0.25-0.29c0,0,0,0,0,0c0.12-0.28,0.07-0.59-0.12-0.8
		c-0.03-0.03-0.08-0.05-0.11-0.08c-0.05-0.04-0.09-0.08-0.15-0.11l-1.56-0.69c0.14-0.46,0.27-0.92,0.36-1.39l1.65,0.23
		c0.08,0.01,0.15,0,0.22-0.01c0.04-0.01,0.08-0.01,0.11-0.02c0.05-0.02,0.1-0.05,0.15-0.07c0.03-0.02,0.06-0.03,0.09-0.05
		c0.05-0.04,0.09-0.09,0.12-0.14c0.02-0.02,0.04-0.04,0.06-0.07c0.05-0.08,0.08-0.17,0.09-0.27c0.03-0.23-0.04-0.44-0.18-0.6
		C125.34,72.65,125.18,72.56,124.99,72.53z M117.66,79.03c-0.15,0.13-0.3,0.24-0.47,0.33c-0.06,0.03-0.11,0.05-0.17,0.08
		c-0.11,0.05-0.22,0.11-0.34,0.15c-0.07,0.02-0.14,0.04-0.21,0.06c-0.11,0.03-0.21,0.06-0.32,0.07c-0.08,0.01-0.15,0.01-0.23,0.02
		c-0.07,0-0.14,0.02-0.21,0.02c-0.03,0-0.06-0.01-0.09-0.01c-0.11,0-0.23-0.02-0.34-0.04c-0.08-0.01-0.16-0.02-0.24-0.04
		c-0.12-0.03-0.23-0.07-0.34-0.11c-0.07-0.03-0.15-0.05-0.22-0.08c-0.12-0.06-0.23-0.13-0.35-0.2c-0.06-0.04-0.12-0.07-0.17-0.11
		c-0.16-0.12-0.32-0.26-0.46-0.42c-1.07-1.23-0.95-3.09,0.28-4.16c0.87-0.76,1.35-1.81,1.43-2.88c0.01-0.2,0.01-0.4,0-0.61
		c-0.05-0.6-0.22-1.2-0.53-1.75c-0.14-0.24-0.3-0.48-0.49-0.69c-1.07-1.23-0.95-3.09,0.28-4.16c0.15-0.13,0.3-0.24,0.47-0.33
		c0.05-0.03,0.11-0.05,0.17-0.08c0.11-0.05,0.22-0.11,0.34-0.15c0.07-0.02,0.14-0.04,0.21-0.06c0.11-0.03,0.21-0.06,0.32-0.07
		c0.08-0.01,0.15-0.01,0.23-0.02c0.07,0,0.14-0.02,0.21-0.02c0.03,0,0.06,0.01,0.09,0.01c0.11,0,0.23,0.02,0.34,0.04
		c0.08,0.01,0.16,0.02,0.25,0.04c0.12,0.03,0.23,0.07,0.34,0.11c0.07,0.03,0.15,0.05,0.22,0.08c0.12,0.06,0.23,0.13,0.35,0.2
		c0.06,0.04,0.12,0.07,0.17,0.11c0.16,0.12,0.32,0.26,0.46,0.42C122.28,68.98,121.85,75.37,117.66,79.03z"/>
	<path class="st4" d="M118.16,64.36c-0.06-0.04-0.12-0.07-0.17-0.11c-0.11-0.07-0.23-0.14-0.35-0.2c-0.07-0.03-0.15-0.06-0.22-0.08
		c-0.11-0.04-0.22-0.08-0.34-0.11c-0.08-0.02-0.16-0.03-0.25-0.04c-0.11-0.02-0.23-0.03-0.34-0.04c-0.03,0-0.06-0.01-0.09-0.01
		c-0.07,0-0.14,0.01-0.21,0.02c-0.08,0.01-0.15,0.01-0.23,0.02c-0.11,0.02-0.21,0.04-0.32,0.07c-0.07,0.02-0.14,0.03-0.21,0.06
		c-0.12,0.04-0.23,0.09-0.34,0.15c-0.06,0.03-0.11,0.05-0.17,0.08c-0.16,0.09-0.32,0.2-0.47,0.33c-1.23,1.07-1.35,2.93-0.28,4.16
		c0.19,0.22,0.35,0.45,0.49,0.69c0.31,0.55,0.49,1.14,0.53,1.75c0.02,0.2,0.02,0.4,0,0.61c-0.07,1.07-0.55,2.12-1.43,2.88
		c-1.23,1.07-1.35,2.93-0.28,4.16c0.14,0.16,0.3,0.3,0.46,0.42c0.06,0.04,0.12,0.07,0.17,0.11c0.11,0.07,0.23,0.15,0.35,0.2
		c0.07,0.03,0.15,0.05,0.22,0.08c0.11,0.04,0.23,0.08,0.34,0.11c0.08,0.02,0.16,0.03,0.24,0.04c0.11,0.02,0.23,0.03,0.34,0.04
		c0.03,0,0.06,0.01,0.09,0.01c0.07,0,0.14-0.01,0.21-0.02c0.08-0.01,0.15-0.01,0.23-0.02c0.11-0.02,0.21-0.04,0.32-0.07
		c0.07-0.02,0.14-0.03,0.21-0.06c0.11-0.04,0.23-0.09,0.34-0.15c0.06-0.03,0.12-0.05,0.17-0.08c0.16-0.09,0.32-0.2,0.47-0.33
		c4.19-3.66,4.62-10.05,0.96-14.25C118.48,64.62,118.32,64.48,118.16,64.36z M115.85,67.71c-0.47-0.53-0.41-1.35,0.12-1.81
		s1.35-0.41,1.81,0.12c0.47,0.53,0.41,1.35-0.12,1.81C117.12,68.3,116.31,68.25,115.85,67.71z M119.1,69.73
		c-0.34,0.3-0.86,0.26-1.16-0.08c-0.3-0.34-0.26-0.86,0.08-1.16s0.86-0.26,1.16,0.08C119.47,68.91,119.44,69.43,119.1,69.73z"/>
	<path class="st0" d="M117.78,66.02c-0.47-0.53-1.28-0.59-1.81-0.12s-0.59,1.28-0.12,1.81c0.47,0.53,1.28,0.59,1.81,0.12
		C118.19,67.37,118.25,66.55,117.78,66.02z"/>
	<path class="st0" d="M118.01,68.49c-0.34,0.3-0.38,0.82-0.08,1.16c0.3,0.34,0.82,0.38,1.16,0.08s0.38-0.82,0.08-1.16
		C118.88,68.22,118.36,68.19,118.01,68.49z"/>
	<path class="st3" d="M40.38,108.53c-0.03-0.04-0.05-0.08-0.09-0.12c-0.02-0.02-0.05-0.03-0.07-0.05c-0.04-0.03-0.07-0.05-0.11-0.07
		c-0.03-0.01-0.06-0.01-0.09-0.02c-0.05-0.01-0.1-0.02-0.15-0.02l-1.01,0.04c-0.08-0.44-0.25-0.85-0.46-1.22l0.7-0.54
		c0.13-0.1,0.21-0.24,0.22-0.39c0.02-0.15-0.02-0.31-0.12-0.44c-0.05-0.07-0.12-0.12-0.2-0.16c-0.02-0.01-0.05-0.02-0.08-0.02
		c-0.05-0.02-0.11-0.03-0.16-0.04c-0.02,0-0.05,0-0.07,0c-0.11,0.01-0.23,0.04-0.32,0.11l-0.7,0.54c-0.31-0.3-0.67-0.56-1.06-0.74
		l0.43-0.69c0.09-0.14,0.11-0.3,0.07-0.45c-0.03-0.15-0.13-0.28-0.26-0.37c-0.09-0.05-0.18-0.07-0.28-0.08c-0.03,0-0.05,0-0.08,0
		c-0.06,0.01-0.13,0.02-0.18,0.05c-0.02,0.01-0.05,0.02-0.07,0.03c-0.08,0.05-0.15,0.11-0.2,0.19l-0.6,0.97
		c-0.15-0.02-0.3-0.06-0.46-0.06c-0.17,0-0.33-0.04-0.47-0.09c-0.3-0.11-0.55-0.31-0.72-0.56c-0.09-0.13-0.16-0.27-0.2-0.42
		l0.99-0.44c0.07-0.03,0.14-0.08,0.19-0.13c0.11-0.11,0.16-0.26,0.16-0.41c0-0.08-0.02-0.15-0.05-0.23c-0.04-0.1-0.12-0.17-0.2-0.23
		c-0.02-0.01-0.04-0.03-0.06-0.04c-0.08-0.04-0.17-0.08-0.27-0.08c-0.01,0-0.01,0-0.02,0c-0.08,0-0.16,0.02-0.23,0.05l-0.64,0.28
		c-0.1-0.62-0.34-1.19-0.69-1.69l0.9-0.64c0.13-0.09,0.21-0.23,0.24-0.38c0.01-0.07,0.01-0.15-0.01-0.23
		c-0.02-0.07-0.05-0.15-0.1-0.21c-0.05-0.07-0.12-0.13-0.2-0.17c-0.02-0.01-0.05-0.02-0.07-0.03c-0.05-0.02-0.11-0.04-0.17-0.04
		c-0.03,0-0.05,0-0.08,0c-0.11,0.01-0.21,0.03-0.31,0.1l-1.03,0.73c-0.34-0.27-0.73-0.48-1.15-0.63l0.26-0.95
		c0.06-0.24-0.03-0.48-0.21-0.62c-0.06-0.05-0.13-0.08-0.21-0.1c0,0,0,0,0,0c-0.03-0.01-0.07,0-0.1-0.01c-0.02,0-0.05-0.01-0.07,0
		c-0.11,0.01-0.22,0.04-0.31,0.1c-0.02,0.01-0.03,0.03-0.04,0.04c-0.09,0.07-0.16,0.17-0.19,0.29l-0.27,1.02
		c-0.03,0-0.05-0.01-0.08-0.01c-0.17,0-0.33,0.02-0.5,0.03c-0.07,0.01-0.14,0.01-0.21,0.02c-0.21,0.04-0.42,0.09-0.63,0.15
		l-0.44-0.82c-0.05-0.09-0.12-0.15-0.2-0.21c-0.02-0.01-0.04-0.02-0.06-0.03c0,0-0.01,0-0.01,0c-0.07-0.03-0.14-0.05-0.21-0.06
		c-0.02,0-0.04-0.01-0.07-0.01c-0.09,0-0.17,0.02-0.25,0.06c-0.22,0.11-0.33,0.34-0.31,0.57c0.01,0.08,0.03,0.15,0.07,0.22
		l0.41,0.78c-0.34,0.23-0.64,0.52-0.9,0.84l-0.85-0.52c0,0,0,0,0,0c-0.09-0.05-0.18-0.07-0.28-0.08c-0.03,0-0.05,0-0.08,0
		c-0.06,0.01-0.13,0.02-0.18,0.05c-0.02,0.01-0.05,0.02-0.07,0.03c-0.08,0.05-0.15,0.11-0.2,0.19c-0.17,0.28-0.08,0.64,0.19,0.81
		l0.88,0.54c-0.12,0.29-0.19,0.6-0.24,0.92l-1.02-0.05c0,0,0,0,0,0c-0.06-0.01-0.11,0.01-0.16,0.02c-0.03,0.01-0.06,0.01-0.09,0.02
		c-0.04,0.02-0.08,0.04-0.11,0.07c-0.02,0.02-0.05,0.03-0.07,0.05c-0.04,0.03-0.06,0.08-0.09,0.12c-0.01,0.02-0.03,0.04-0.04,0.06
		c-0.03,0.07-0.05,0.14-0.06,0.22c-0.01,0.16,0.05,0.31,0.15,0.43c0.09,0.1,0.22,0.16,0.36,0.18c0.02,0,0.03,0.01,0.05,0.01
		l1.04,0.06c0.02,0.39,0.05,0.78,0.12,1.17l-1.04,0.22c-0.16,0.03-0.29,0.13-0.37,0.26c-0.08,0.13-0.12,0.28-0.08,0.44
		c0.06,0.27,0.29,0.46,0.56,0.47c0.05,0,0.09,0,0.14-0.01l1.06-0.23c0.09,0.31,0.2,0.62,0.33,0.92l-1.17,0.5
		c-0.07,0.03-0.14,0.08-0.19,0.13c-0.16,0.17-0.21,0.42-0.12,0.64c0.09,0.22,0.3,0.35,0.52,0.36c0.08,0,0.17-0.01,0.25-0.05
		l1.22-0.53c0.19,0.33,0.39,0.64,0.61,0.94l-1.01,0.83c-0.13,0.1-0.2,0.25-0.21,0.4c-0.01,0.08,0,0.15,0.02,0.22
		c0.02,0.07,0.06,0.14,0.11,0.21c0.06,0.07,0.12,0.12,0.2,0.16c0.08,0.04,0.16,0.06,0.24,0.06c0.01,0,0.02,0,0.03,0
		c0.13,0,0.25-0.04,0.36-0.13l1.01-0.83c0.3,0.32,0.63,0.62,0.98,0.89l-0.72,0.95c-0.2,0.26-0.15,0.63,0.11,0.83
		c0.1,0.08,0.22,0.12,0.34,0.12c0.06,0,0.12-0.02,0.19-0.04c0.03-0.01,0.06-0.01,0.08-0.02c0.08-0.04,0.16-0.1,0.22-0.17l0.74-0.98
		c0.29,0.18,0.6,0.35,0.91,0.51l-0.32,0.89c-0.06,0.15-0.04,0.31,0.02,0.45c0.06,0.14,0.18,0.25,0.33,0.3
		c0.06,0.02,0.12,0.03,0.18,0.04c0.08,0,0.16-0.04,0.24-0.07c0.04-0.02,0.08-0.01,0.11-0.03c0.1-0.07,0.18-0.16,0.22-0.29l0.3-0.84
		c0.41,0.14,0.83,0.24,1.26,0.32l-0.12,0.89c-0.02,0.16,0.03,0.32,0.12,0.44c0.09,0.12,0.23,0.2,0.39,0.22c0.02,0,0.04,0,0.06,0.01
		c0.05,0,0.09-0.01,0.14-0.02c0.03-0.01,0.06-0.01,0.08-0.02c0.04-0.02,0.08-0.04,0.11-0.06c0.02-0.01,0.05-0.02,0.07-0.04
		c0.04-0.03,0.06-0.07,0.09-0.11c0.01-0.02,0.03-0.03,0.04-0.05c0.03-0.06,0.06-0.13,0.07-0.21l0.11-0.89
		c0.13,0.01,0.26,0.03,0.4,0.03c0.14,0,0.27-0.01,0.41-0.02c0.05-0.01,0.11,0,0.16-0.01c0.17-0.02,0.34-0.06,0.5-0.1l0.3,0.89
		c0.02,0.07,0.08,0.11,0.12,0.17c0.11,0.13,0.25,0.23,0.42,0.24c0.07,0,0.13-0.01,0.2-0.03c0.15-0.05,0.27-0.16,0.34-0.3
		c0.07-0.13,0.08-0.3,0.03-0.45l-0.32-0.95c0.09-0.05,0.17-0.12,0.26-0.18c0.25-0.18,0.49-0.38,0.7-0.61l1.07,0.63
		c0.09,0.05,0.19,0.08,0.28,0.08c0.07,0,0.14-0.03,0.21-0.05c0.03-0.01,0.07-0.01,0.1-0.02c0.09-0.05,0.17-0.12,0.22-0.22
		c0.04-0.07,0.07-0.15,0.08-0.22c0,0,0-0.01,0-0.01c0.02-0.15-0.02-0.3-0.11-0.42c-0.05-0.06-0.1-0.11-0.17-0.16l-1-0.59
		c0.19-0.41,0.31-0.85,0.35-1.32l1.02-0.04c0.33-0.01,0.58-0.29,0.56-0.61c0-0.08-0.02-0.16-0.06-0.22
		C40.41,108.57,40.39,108.55,40.38,108.53z M37.11,109.58c-0.01,0.05-0.03,0.1-0.05,0.15c-0.03,0.09-0.05,0.19-0.09,0.28
		c-0.02,0.05-0.06,0.1-0.09,0.16c-0.04,0.08-0.08,0.16-0.13,0.23c-0.04,0.05-0.08,0.1-0.12,0.14c-0.05,0.06-0.1,0.13-0.16,0.19
		c-0.05,0.05-0.1,0.08-0.15,0.12c-0.06,0.05-0.12,0.1-0.19,0.15c-0.06,0.04-0.12,0.06-0.17,0.09c-0.07,0.04-0.14,0.08-0.22,0.11
		c-0.06,0.03-0.13,0.04-0.19,0.06c-0.08,0.02-0.15,0.05-0.23,0.07c-0.07,0.01-0.14,0.01-0.21,0.02c-0.07,0.01-0.14,0.02-0.21,0.02
		c-0.02,0-0.04,0-0.07,0c-4.34-0.12-7.78-3.75-7.66-8.1c0-0.16,0.02-0.31,0.06-0.46c0.01-0.05,0.03-0.09,0.05-0.14
		c0.03-0.1,0.06-0.19,0.1-0.28c0.03-0.06,0.06-0.11,0.09-0.16c0.04-0.08,0.08-0.15,0.13-0.22c0.04-0.05,0.08-0.1,0.12-0.14
		c0.05-0.06,0.1-0.13,0.16-0.19c0.05-0.04,0.1-0.08,0.15-0.12c0.06-0.05,0.12-0.1,0.19-0.15c0.06-0.04,0.12-0.06,0.18-0.09
		c0.07-0.04,0.14-0.08,0.21-0.11c0.06-0.03,0.13-0.04,0.2-0.06c0.08-0.02,0.15-0.05,0.23-0.07c0.07-0.01,0.14-0.01,0.21-0.02
		c0.07-0.01,0.14-0.02,0.22-0.02c0.02,0,0.04,0,0.07,0c0.55,0.02,1.04,0.23,1.43,0.56c0.17,0.15,0.33,0.31,0.45,0.5
		c0.24,0.37,0.37,0.82,0.36,1.3c-0.04,1.36,0.76,2.55,1.92,3.08c0.39,0.18,0.82,0.28,1.27,0.29c0.16,0,0.31,0.02,0.46,0.06
		c0.45,0.1,0.84,0.34,1.15,0.66c0.4,0.43,0.65,1.01,0.63,1.64C37.16,109.28,37.14,109.43,37.11,109.58z"/>
	<path class="st4" d="M35.39,106.82c-0.15-0.03-0.3-0.06-0.46-0.06c-0.45-0.01-0.88-0.12-1.27-0.29c-1.16-0.53-1.96-1.72-1.92-3.08
		c0.01-0.48-0.12-0.92-0.36-1.3c-0.12-0.19-0.28-0.36-0.45-0.5c-0.39-0.33-0.88-0.55-1.43-0.56c-0.02,0-0.04,0-0.07,0
		c-0.07,0-0.14,0.01-0.22,0.02c-0.07,0.01-0.14,0.01-0.21,0.02c-0.08,0.02-0.16,0.04-0.23,0.07c-0.07,0.02-0.13,0.03-0.2,0.06
		c-0.07,0.03-0.14,0.07-0.21,0.11c-0.06,0.03-0.12,0.06-0.18,0.09c-0.07,0.04-0.13,0.1-0.19,0.15c-0.05,0.04-0.1,0.08-0.15,0.12
		c-0.06,0.06-0.11,0.12-0.16,0.19c-0.04,0.05-0.09,0.09-0.12,0.14c-0.05,0.07-0.09,0.15-0.13,0.22c-0.03,0.05-0.06,0.1-0.09,0.16
		c-0.04,0.09-0.07,0.19-0.1,0.28c-0.01,0.05-0.04,0.09-0.05,0.14c-0.03,0.15-0.05,0.3-0.06,0.46c-0.12,4.34,3.31,7.98,7.66,8.1
		c0.02,0,0.04,0,0.07,0c0.07,0,0.14-0.01,0.21-0.02c0.07-0.01,0.14-0.01,0.21-0.02c0.08-0.02,0.16-0.04,0.23-0.07
		c0.07-0.02,0.13-0.03,0.19-0.06c0.08-0.03,0.15-0.07,0.22-0.11c0.06-0.03,0.12-0.06,0.17-0.09c0.07-0.04,0.13-0.1,0.19-0.15
		c0.05-0.04,0.11-0.08,0.15-0.12c0.06-0.06,0.11-0.12,0.16-0.19c0.04-0.05,0.09-0.09,0.12-0.14c0.05-0.07,0.09-0.15,0.13-0.23
		c0.03-0.05,0.06-0.1,0.09-0.16c0.04-0.09,0.07-0.18,0.09-0.28c0.02-0.05,0.04-0.1,0.05-0.15c0.03-0.15,0.05-0.3,0.06-0.46
		c0.02-0.64-0.22-1.22-0.63-1.64C36.23,107.16,35.84,106.92,35.39,106.82z M32.34,109.67c-0.3-0.01-0.54-0.23-0.6-0.51
		c-0.01-0.05-0.03-0.1-0.03-0.15c0.01-0.36,0.31-0.63,0.66-0.62c0.36,0.01,0.63,0.31,0.62,0.66c-0.01,0.25-0.16,0.45-0.36,0.55
		C32.55,109.64,32.45,109.68,32.34,109.67z M34.54,110.22c-0.25-0.01-0.47-0.12-0.65-0.27c-0.21-0.19-0.34-0.46-0.33-0.76
		c0.02-0.55,0.48-0.99,1.03-0.97s0.99,0.48,0.97,1.03c-0.01,0.32-0.18,0.59-0.42,0.77C34.97,110.14,34.77,110.23,34.54,110.22z"/>
	<path class="st0" d="M34.59,108.22c-0.55-0.02-1.02,0.42-1.03,0.97c-0.01,0.3,0.12,0.57,0.33,0.76c0.17,0.16,0.39,0.27,0.65,0.27
		c0.23,0.01,0.44-0.08,0.61-0.21c0.24-0.18,0.41-0.45,0.42-0.77C35.58,108.69,35.15,108.23,34.59,108.22z"/>
	<path class="st0" d="M33,109.05c0.01-0.36-0.27-0.65-0.62-0.66c-0.36-0.01-0.65,0.27-0.66,0.62c0,0.05,0.02,0.1,0.03,0.15
		c0.06,0.28,0.3,0.5,0.6,0.51c0.11,0,0.21-0.03,0.3-0.07C32.84,109.5,32.99,109.29,33,109.05z"/>
	<path class="st3" d="M58.3,91.39c-0.25,0-0.48,0.1-0.69,0.25c-0.05,0.04-0.11,0.06-0.16,0.11l-0.72,0.72
		c-0.3-0.17-0.62-0.31-0.96-0.41v-1.01c0-0.22-0.08-0.41-0.18-0.59c-0.21-0.36-0.58-0.61-1.02-0.61c-0.66,0-1.2,0.54-1.2,1.2v1.01
		c-0.34,0.1-0.66,0.24-0.96,0.41l-0.73-0.72c-0.23-0.23-0.54-0.35-0.85-0.35s-0.61,0.12-0.85,0.35c-0.47,0.47-0.47,1.23,0,1.7
		l0.77,0.78c-0.15,0.29-0.26,0.59-0.34,0.91H49.3c-0.66,0-1.2,0.54-1.2,1.2c0,0.66,0.54,1.2,1.2,1.2h1.24
		c0.09,0.27,0.21,0.54,0.36,0.78L50,99.2c-0.35,0.35-0.44,0.87-0.26,1.3c0.06,0.14,0.15,0.28,0.26,0.4c0.12,0.12,0.25,0.21,0.4,0.26
		c0.14,0.06,0.3,0.09,0.45,0.09c0.15,0,0.31-0.03,0.45-0.09c0.14-0.06,0.28-0.15,0.4-0.26l0.95-0.95c0.23,0.12,0.48,0.22,0.73,0.29
		v1.35c0,0.66,0.54,1.2,1.2,1.2c0.33,0,0.63-0.13,0.85-0.35c0.22-0.22,0.35-0.52,0.35-0.85v-1.35c0.26-0.08,0.5-0.17,0.74-0.29
		l0.95,0.95c0.08,0.08,0.17,0.12,0.26,0.17c0.05,0.03,0.09,0.07,0.14,0.09c0.14,0.06,0.3,0.09,0.45,0.09c0.15,0,0.31-0.03,0.45-0.09
		c0.14-0.06,0.28-0.15,0.4-0.26c0.12-0.12,0.2-0.25,0.26-0.4c0.18-0.43,0.09-0.95-0.26-1.3l-0.9-0.9c0.15-0.25,0.26-0.51,0.36-0.78
		h1.24c0.66,0,1.2-0.54,1.2-1.2c0-0.66-0.54-1.2-1.2-1.2h-1.13c-0.08-0.32-0.2-0.62-0.34-0.91l0.78-0.78c0.47-0.47,0.47-1.23,0-1.7
		c-0.14-0.14-0.31-0.23-0.49-0.28C58.54,91.43,58.42,91.39,58.3,91.39z"/>
	<path class="st3" d="M98.3,36.15c0,0.55,0.34,1.03,0.82,1.23c0.16,0.07,0.34,0.11,0.52,0.11h1.38c0.11,0.31,0.24,0.6,0.4,0.88l-1,1
		c-0.52,0.52-0.52,1.37,0,1.89c0.26,0.26,0.6,0.39,0.95,0.39c0.34,0,0.68-0.13,0.94-0.39l1.06-1.06c0.26,0.13,0.53,0.24,0.82,0.32
		v1.51c0,0.74,0.6,1.34,1.34,1.34c0.74,0,1.34-0.6,1.34-1.34v-1.51c0.29-0.08,0.56-0.19,0.82-0.32l1.06,1.06
		c0.26,0.26,0.6,0.39,0.95,0.39c0.17,0,0.34-0.03,0.5-0.1c0.16-0.07,0.31-0.16,0.44-0.29c0.26-0.26,0.39-0.6,0.39-0.95
		s-0.13-0.69-0.39-0.95l-1-1c0.16-0.28,0.3-0.57,0.4-0.88h1.38c0.37,0,0.7-0.15,0.95-0.39c0.24-0.24,0.39-0.58,0.39-0.95
		c0-0.37-0.15-0.7-0.39-0.95c-0.24-0.24-0.58-0.39-0.95-0.39h-1.26h0c-0.09-0.36-0.22-0.69-0.38-1.01l0.87-0.87
		c0.26-0.26,0.39-0.6,0.39-0.94c0-0.34-0.13-0.69-0.39-0.95c-0.26-0.26-0.6-0.39-0.95-0.39s-0.69,0.13-0.95,0.39l-0.81,0.81
		c-0.33-0.19-0.69-0.35-1.07-0.46v-1.13c0-0.74-0.6-1.34-1.34-1.34c-0.74,0-1.34,0.6-1.34,1.34v1.13c-0.38,0.11-0.73,0.26-1.07,0.46
		l-0.81-0.81c-0.26-0.26-0.6-0.39-0.95-0.39c-0.34,0-0.68,0.13-0.95,0.39c-0.52,0.52-0.52,1.37,0,1.89l0.86,0.87
		c-0.16,0.32-0.29,0.65-0.38,1.01h-1.26c-0.18,0-0.36,0.04-0.52,0.11C98.64,35.12,98.3,35.59,98.3,36.15z"/>
	<path class="st3" d="M16.84,74.85c0.07-0.07,0.12-0.15,0.16-0.24c0.04-0.09,0.06-0.19,0.06-0.29v-0.85v0
		c0.16-0.05,0.32-0.11,0.46-0.18l0.6,0.6c0.15,0.15,0.34,0.22,0.53,0.22c0.19,0,0.39-0.07,0.53-0.22c0.15-0.15,0.22-0.34,0.22-0.53
		s-0.07-0.39-0.22-0.53l-0.56-0.56c0.09-0.16,0.17-0.32,0.22-0.49h0.78c0.42,0,0.76-0.34,0.76-0.76c0-0.42-0.34-0.76-0.76-0.76
		h-0.71h0c-0.05-0.2-0.12-0.39-0.22-0.57l0.49-0.49c0.29-0.29,0.29-0.77,0-1.07c-0.15-0.15-0.34-0.22-0.53-0.22
		c-0.19,0-0.39,0.07-0.53,0.22l-0.46,0.46c-0.19-0.11-0.39-0.2-0.6-0.26v-0.64c0-0.21-0.08-0.4-0.22-0.53
		c-0.14-0.14-0.32-0.22-0.53-0.22c-0.42,0-0.76,0.34-0.76,0.76v0.64c-0.21,0.06-0.41,0.15-0.6,0.26l-0.46-0.46
		c-0.15-0.15-0.34-0.22-0.53-0.22c-0.19,0-0.39,0.07-0.53,0.22c-0.29,0.29-0.29,0.77,0,1.07l0.49,0.49
		c-0.09,0.18-0.17,0.37-0.22,0.57h0h-0.71c-0.42,0-0.75,0.34-0.75,0.76c0,0.42,0.34,0.76,0.75,0.76h0.78
		c0.06,0.17,0.13,0.34,0.22,0.49l-0.56,0.56c-0.15,0.15-0.22,0.34-0.22,0.53s0.07,0.39,0.22,0.53c0.15,0.15,0.34,0.22,0.53,0.22
		c0.19,0,0.39-0.07,0.53-0.22l0.49-0.49l0.11-0.11c0.15,0.07,0.3,0.14,0.46,0.18v0h0v0.85c0,0.42,0.34,0.76,0.76,0.76
		C16.52,75.07,16.71,74.98,16.84,74.85z"/>
	<path class="st0" d="M31.64,78.43c-0.85,0-1.63,0.29-2.27,0.76c-0.93,0.7-1.55,1.8-1.55,3.05c0,2.11,1.71,3.82,3.82,3.82
		c1.03,0,1.96-0.41,2.65-1.08c0.01-0.01,0.03-0.02,0.04-0.03l13.99,9.08c0.13-0.06,0.27-0.1,0.41-0.14
		c-0.24-0.39-0.37-0.84-0.37-1.31c0-0.2,0.03-0.4,0.08-0.59l-13.19-8.56c0.13-0.38,0.21-0.78,0.21-1.2c0-0.97-0.37-1.85-0.97-2.52
		l12.55-18.14c-0.01-0.01-0.02-0.02-0.03-0.03c-0.13-0.18-0.23-0.37-0.3-0.57c-0.01,0-0.01,0.01-0.02,0.01
		c-0.37,0.32-0.84,0.49-1.33,0.49c-0.13,0-0.26-0.02-0.39-0.04L33.04,78.7C32.61,78.53,32.14,78.43,31.64,78.43z"/>
</g>
<ellipse class="st5" cx="67.42" cy="137.69" rx="44.33" ry="6.65"/>
</svg>
